<svg width="440" height="160" viewBox="0 0 440 160" fill="none" xmlns="http://www.w3.org/2000/svg">
<rect width="440" height="160" fill="white"/>
<circle cx="80" cy="80" r="40" fill="#EEFAFE"/>
<path d="M89.8346 80.5547L75.7026 89.976C75.6022 90.0428 75.4856 90.0811 75.3651 90.0869C75.2447 90.0927 75.1249 90.0656 75.0186 90.0087C74.9123 89.9518 74.8234 89.8671 74.7614 89.7637C74.6995 89.6602 74.6667 89.5419 74.6666 89.4213V70.5787C74.6667 70.4581 74.6995 70.3398 74.7614 70.2363C74.8234 70.1329 74.9123 70.0482 75.0186 69.9913C75.1249 69.9344 75.2447 69.9074 75.3651 69.9131C75.4856 69.9189 75.6022 69.9572 75.7026 70.024L89.8346 79.4453C89.9259 79.5062 90.0008 79.5887 90.0526 79.6855C90.1044 79.7822 90.1314 79.8903 90.1314 80C90.1314 80.1098 90.1044 80.2178 90.0526 80.3146C90.0008 80.4113 89.9259 80.4938 89.8346 80.5547Z" fill="#89B9C8"/>
<path d="M160.616 74.288C159.256 74.288 158.04 74 156.968 73.424C155.896 72.848 155.056 72.056 154.448 71.048C153.84 70.024 153.536 68.88 153.536 67.616V56.12H156.8V67.448C156.8 68.584 157.152 69.512 157.856 70.232C158.576 70.952 159.496 71.312 160.616 71.312C161.736 71.312 162.648 70.952 163.352 70.232C164.072 69.512 164.432 68.584 164.432 67.448V56.12H167.696V67.616C167.696 68.88 167.392 70.024 166.784 71.048C166.176 72.056 165.336 72.848 164.264 73.424C163.192 74 161.976 74.288 160.616 74.288ZM169.995 56.12H173.259V74H169.995V56.12ZM179.043 56.12H184.875C186.747 56.12 188.387 56.496 189.795 57.248C191.203 58 192.291 59.056 193.059 60.416C193.827 61.76 194.211 63.304 194.211 65.048C194.211 66.776 193.827 68.32 193.059 69.68C192.291 71.04 191.195 72.104 189.771 72.872C188.363 73.624 186.731 74 184.875 74H179.043V56.12ZM184.947 71.12C186.147 71.12 187.195 70.872 188.091 70.376C189.003 69.88 189.699 69.176 190.179 68.264C190.675 67.336 190.923 66.264 190.923 65.048C190.923 63.832 190.675 62.768 190.179 61.856C189.699 60.944 189.003 60.24 188.091 59.744C187.195 59.248 186.147 59 184.947 59H182.307V71.12H184.947ZM201.777 74.288C200.465 74.288 199.297 73.984 198.273 73.376C197.265 72.768 196.473 71.944 195.897 70.904C195.337 69.864 195.057 68.712 195.057 67.448C195.057 66.168 195.337 65.016 195.897 63.992C196.473 62.952 197.249 62.136 198.225 61.544C199.217 60.952 200.321 60.656 201.537 60.656C202.849 60.656 203.985 60.944 204.945 61.52C205.905 62.08 206.633 62.848 207.129 63.824C207.641 64.8 207.897 65.872 207.897 67.04C207.897 67.584 207.841 68.024 207.729 68.36H198.321C198.417 69.32 198.785 70.088 199.425 70.664C200.065 71.24 200.857 71.528 201.801 71.528C202.505 71.528 203.105 71.384 203.601 71.096C204.113 70.792 204.521 70.376 204.825 69.848L207.369 71.096C206.969 72.056 206.265 72.832 205.257 73.424C204.249 74 203.089 74.288 201.777 74.288ZM204.537 65.96C204.457 65.16 204.145 64.512 203.601 64.016C203.057 63.504 202.369 63.248 201.537 63.248C200.737 63.248 200.057 63.488 199.497 63.968C198.937 64.432 198.569 65.096 198.393 65.96H204.537ZM214.216 74.264C212.904 74.264 211.744 73.952 210.736 73.328C209.744 72.704 209.04 71.848 208.624 70.76L210.952 69.56C211.304 70.264 211.768 70.816 212.344 71.216C212.936 71.6 213.584 71.792 214.288 71.792C214.896 71.792 215.368 71.672 215.704 71.432C216.056 71.176 216.232 70.832 216.232 70.4C216.232 70.032 216.088 69.728 215.8 69.488C215.512 69.232 215.136 69.064 214.672 68.984L212.536 68.624C211.432 68.336 210.576 67.848 209.968 67.16C209.376 66.456 209.08 65.632 209.08 64.688C209.08 63.904 209.288 63.208 209.704 62.6C210.12 61.976 210.696 61.496 211.432 61.16C212.184 60.824 213.032 60.656 213.976 60.656C215.176 60.656 216.232 60.944 217.144 61.52C218.056 62.08 218.72 62.864 219.136 63.872L216.808 65.072C216.552 64.512 216.16 64.064 215.632 63.728C215.104 63.392 214.52 63.224 213.88 63.224C213.352 63.224 212.928 63.344 212.608 63.584C212.304 63.824 212.152 64.136 212.152 64.52C212.152 65.224 212.68 65.696 213.736 65.936L215.824 66.32C216.928 66.624 217.784 67.12 218.392 67.808C219 68.496 219.304 69.312 219.304 70.256C219.304 71.04 219.088 71.736 218.656 72.344C218.24 72.952 217.648 73.424 216.88 73.76C216.112 74.096 215.224 74.264 214.216 74.264ZM220.688 60.944H223.832V74H220.688V60.944ZM220.448 57.344C220.448 56.768 220.608 56.32 220.928 56C221.248 55.68 221.688 55.52 222.248 55.52C222.824 55.52 223.272 55.68 223.592 56C223.912 56.32 224.072 56.768 224.072 57.344C224.072 57.904 223.912 58.344 223.592 58.664C223.288 58.984 222.84 59.144 222.248 59.144C221.688 59.144 221.248 58.984 220.928 58.664C220.608 58.344 220.448 57.904 220.448 57.344ZM232.111 79.28C230.639 79.28 229.343 78.928 228.223 78.224C227.119 77.536 226.359 76.616 225.943 75.464L228.871 74.36C229.063 74.984 229.447 75.48 230.023 75.848C230.599 76.216 231.295 76.4 232.111 76.4C233.071 76.4 233.847 76.128 234.439 75.584C235.047 75.04 235.351 74.296 235.351 73.352V71.936C234.423 72.96 233.167 73.472 231.583 73.472C230.383 73.472 229.295 73.192 228.319 72.632C227.359 72.072 226.607 71.304 226.063 70.328C225.519 69.352 225.247 68.256 225.247 67.04C225.247 65.824 225.511 64.736 226.039 63.776C226.583 62.8 227.335 62.04 228.295 61.496C229.255 60.936 230.327 60.656 231.511 60.656C233.191 60.656 234.527 61.248 235.519 62.432V60.944H238.495V73.352C238.495 74.488 238.223 75.504 237.679 76.4C237.135 77.312 236.375 78.016 235.399 78.512C234.439 79.024 233.343 79.28 232.111 79.28ZM228.511 67.064C228.511 68.072 228.831 68.912 229.471 69.584C230.127 70.24 230.959 70.568 231.967 70.568C232.959 70.568 233.767 70.24 234.391 69.584C235.031 68.928 235.351 68.088 235.351 67.064C235.351 66.04 235.031 65.2 234.391 64.544C233.751 63.872 232.943 63.536 231.967 63.536C230.975 63.536 230.151 63.872 229.495 64.544C228.839 65.216 228.511 66.056 228.511 67.064ZM240.471 60.944H243.424V62.552C243.76 61.944 244.247 61.48 244.887 61.16C245.543 60.824 246.288 60.656 247.12 60.656C248.064 60.656 248.912 60.864 249.664 61.28C250.416 61.696 251 62.28 251.416 63.032C251.832 63.784 252.04 64.64 252.04 65.6V74H248.896V66.344C248.896 65.496 248.648 64.816 248.151 64.304C247.671 63.792 247.039 63.536 246.256 63.536C245.472 63.536 244.832 63.792 244.336 64.304C243.855 64.816 243.615 65.496 243.615 66.344V74H240.471V60.944ZM265.708 74.288C264.028 74.288 262.508 73.888 261.148 73.088C259.788 72.288 258.716 71.184 257.932 69.776C257.164 68.368 256.78 66.792 256.78 65.048C256.78 63.304 257.164 61.728 257.932 60.32C258.716 58.912 259.78 57.816 261.124 57.032C262.484 56.232 264.012 55.832 265.708 55.832C266.94 55.832 268.068 56.048 269.092 56.48C270.116 56.896 270.98 57.464 271.684 58.184C272.404 58.888 272.924 59.672 273.244 60.536L270.316 61.904C269.964 60.976 269.38 60.232 268.564 59.672C267.748 59.096 266.796 58.808 265.708 58.808C264.604 58.808 263.62 59.072 262.756 59.6C261.892 60.112 261.22 60.84 260.74 61.784C260.276 62.728 260.044 63.816 260.044 65.048C260.044 66.28 260.276 67.376 260.74 68.336C261.22 69.28 261.892 70.016 262.756 70.544C263.62 71.056 264.604 71.312 265.708 71.312C266.796 71.312 267.748 71.032 268.564 70.472C269.38 69.896 269.964 69.144 270.316 68.216L273.244 69.584C272.924 70.448 272.404 71.24 271.684 71.96C270.98 72.664 270.116 73.232 269.092 73.664C268.068 74.08 266.94 74.288 265.708 74.288ZM280.819 74.288C279.555 74.288 278.395 73.992 277.339 73.4C276.283 72.808 275.443 71.992 274.819 70.952C274.211 69.912 273.907 68.752 273.907 67.472C273.907 66.192 274.211 65.032 274.819 63.992C275.427 62.952 276.259 62.136 277.315 61.544C278.371 60.952 279.539 60.656 280.819 60.656C282.083 60.656 283.235 60.952 284.275 61.544C285.331 62.136 286.163 62.952 286.771 63.992C287.395 65.032 287.707 66.192 287.707 67.472C287.707 68.768 287.395 69.936 286.771 70.976C286.163 72.016 285.331 72.832 284.275 73.424C283.219 74 282.067 74.288 280.819 74.288ZM277.171 67.472C277.171 68.608 277.507 69.552 278.179 70.304C278.867 71.04 279.747 71.408 280.819 71.408C281.507 71.408 282.123 71.24 282.667 70.904C283.211 70.568 283.635 70.104 283.939 69.512C284.259 68.904 284.419 68.224 284.419 67.472C284.419 66.736 284.259 66.072 283.939 65.48C283.635 64.872 283.211 64.4 282.667 64.064C282.123 63.712 281.507 63.536 280.819 63.536C280.115 63.536 279.483 63.712 278.923 64.064C278.379 64.4 277.947 64.864 277.627 65.456C277.323 66.048 277.171 66.72 277.171 67.472ZM293.787 74.288C292.267 74.288 291.067 73.8 290.187 72.824C289.307 71.848 288.867 70.552 288.867 68.936V60.944H292.011V68.672C292.011 69.488 292.251 70.152 292.731 70.664C293.227 71.16 293.867 71.408 294.651 71.408C295.435 71.408 296.067 71.152 296.547 70.64C297.043 70.128 297.291 69.448 297.291 68.6V60.944H300.435V74H297.459V72.44C297.107 73.048 296.611 73.512 295.971 73.832C295.347 74.136 294.619 74.288 293.787 74.288ZM302.398 60.944H305.35V62.768C305.67 62.064 306.126 61.56 306.718 61.256C307.31 60.952 308.03 60.8 308.878 60.8H309.646V63.584H308.518C307.622 63.584 306.902 63.864 306.358 64.424C305.814 64.984 305.542 65.752 305.542 66.728V74H302.398V60.944ZM315.311 74.264C313.999 74.264 312.839 73.952 311.831 73.328C310.839 72.704 310.135 71.848 309.719 70.76L312.047 69.56C312.399 70.264 312.863 70.816 313.439 71.216C314.031 71.6 314.679 71.792 315.383 71.792C315.991 71.792 316.463 71.672 316.799 71.432C317.151 71.176 317.327 70.832 317.327 70.4C317.327 70.032 317.183 69.728 316.895 69.488C316.607 69.232 316.231 69.064 315.767 68.984L313.631 68.624C312.527 68.336 311.671 67.848 311.063 67.16C310.471 66.456 310.175 65.632 310.175 64.688C310.175 63.904 310.383 63.208 310.799 62.6C311.215 61.976 311.791 61.496 312.527 61.16C313.279 60.824 314.127 60.656 315.071 60.656C316.271 60.656 317.327 60.944 318.239 61.52C319.151 62.08 319.815 62.864 320.231 63.872L317.903 65.072C317.647 64.512 317.255 64.064 316.727 63.728C316.199 63.392 315.615 63.224 314.975 63.224C314.447 63.224 314.023 63.344 313.703 63.584C313.399 63.824 313.247 64.136 313.247 64.52C313.247 65.224 313.775 65.696 314.831 65.936L316.919 66.32C318.023 66.624 318.879 67.12 319.487 67.808C320.095 68.496 320.399 69.312 320.399 70.256C320.399 71.04 320.183 71.736 319.751 72.344C319.335 72.952 318.743 73.424 317.975 73.76C317.207 74.096 316.319 74.264 315.311 74.264ZM327.975 74.288C326.663 74.288 325.495 73.984 324.471 73.376C323.463 72.768 322.671 71.944 322.095 70.904C321.535 69.864 321.255 68.712 321.255 67.448C321.255 66.168 321.535 65.016 322.095 63.992C322.671 62.952 323.447 62.136 324.423 61.544C325.415 60.952 326.519 60.656 327.735 60.656C329.047 60.656 330.183 60.944 331.143 61.52C332.103 62.08 332.831 62.848 333.327 63.824C333.839 64.8 334.095 65.872 334.095 67.04C334.095 67.584 334.039 68.024 333.927 68.36H324.519C324.615 69.32 324.983 70.088 325.623 70.664C326.263 71.24 327.055 71.528 327.999 71.528C328.703 71.528 329.303 71.384 329.799 71.096C330.311 70.792 330.719 70.376 331.023 69.848L333.567 71.096C333.167 72.056 332.463 72.832 331.455 73.424C330.447 74 329.287 74.288 327.975 74.288ZM330.735 65.96C330.655 65.16 330.343 64.512 329.799 64.016C329.255 63.504 328.567 63.248 327.735 63.248C326.935 63.248 326.255 63.488 325.695 63.968C325.135 64.432 324.767 65.096 324.591 65.96H330.735Z" fill="#161C27"/>
<path d="M153.372 105L157.926 95.9915V95.9119H152.676V94.8182H159.199V95.9716L154.665 105H153.372ZM163.677 105.139C163.094 105.139 162.568 105.023 162.101 104.791C161.634 104.559 161.259 104.241 160.978 103.837C160.696 103.432 160.542 102.972 160.515 102.455H161.708C161.755 102.915 161.964 103.296 162.335 103.598C162.709 103.896 163.157 104.045 163.677 104.045C164.095 104.045 164.466 103.948 164.791 103.752C165.119 103.557 165.376 103.288 165.561 102.947C165.75 102.602 165.845 102.213 165.845 101.778C165.845 101.334 165.747 100.938 165.551 100.59C165.359 100.239 165.094 99.9621 164.756 99.7599C164.418 99.5578 164.032 99.455 163.598 99.4517C163.286 99.4484 162.966 99.4964 162.638 99.5959C162.31 99.692 162.04 99.8163 161.828 99.9688L160.674 99.8295L161.291 94.8182H166.581V95.9119H162.325L161.967 98.9148H162.027C162.235 98.7491 162.497 98.6115 162.812 98.5021C163.127 98.3928 163.455 98.3381 163.796 98.3381C164.42 98.3381 164.975 98.4872 165.462 98.7855C165.952 99.0805 166.337 99.4848 166.615 99.9986C166.897 100.512 167.038 101.099 167.038 101.759C167.038 102.408 166.892 102.988 166.6 103.499C166.312 104.006 165.914 104.407 165.407 104.702C164.9 104.993 164.323 105.139 163.677 105.139ZM172.033 105.139C171.377 105.139 170.792 105.027 170.278 104.801C169.768 104.576 169.362 104.263 169.06 103.862C168.762 103.457 168.6 102.988 168.573 102.455H169.826C169.862 102.945 170.088 103.333 170.502 103.618C170.92 103.903 171.423 104.045 172.013 104.045C172.666 104.045 173.203 103.88 173.624 103.548C174.048 103.214 174.26 102.776 174.26 102.236C174.26 101.672 174.052 101.213 173.634 100.859C173.22 100.504 172.627 100.327 171.854 100.327H171.039V99.233H171.854C172.457 99.233 172.95 99.0722 173.331 98.7507C173.712 98.4292 173.903 98 173.903 97.4631C173.903 96.9493 173.735 96.5367 173.4 96.2251C173.066 95.9103 172.617 95.7528 172.053 95.7528C171.702 95.7528 171.37 95.8175 171.059 95.9467C170.751 96.0727 170.499 96.2566 170.303 96.4986C170.108 96.7372 170.002 97.0256 169.985 97.3636H168.792C168.812 96.83 168.972 96.3627 169.274 95.9616C169.576 95.5573 169.97 95.2424 170.457 95.017C170.948 94.7917 171.486 94.679 172.073 94.679C172.703 94.679 173.243 94.8066 173.694 95.0618C174.144 95.3137 174.491 95.6468 174.733 96.0611C174.975 96.4754 175.096 96.9228 175.096 97.4034C175.096 97.9768 174.945 98.4657 174.643 98.87C174.345 99.2744 173.939 99.5545 173.425 99.7102V99.7898C174.068 99.8958 174.57 100.169 174.932 100.61C175.293 101.048 175.474 101.589 175.474 102.236C175.474 102.789 175.323 103.286 175.021 103.727C174.723 104.165 174.315 104.509 173.798 104.761C173.281 105.013 172.693 105.139 172.033 105.139ZM186.352 97.3636C186.292 96.8598 186.05 96.4688 185.626 96.1903C185.202 95.9119 184.681 95.7727 184.065 95.7727C183.389 95.7727 182.845 95.9335 182.434 96.255C182.023 96.5732 181.818 96.9759 181.818 97.4631C181.818 97.8277 181.929 98.1226 182.151 98.348C182.376 98.5701 182.641 98.7441 182.946 98.87C183.254 98.9927 183.534 99.0871 183.786 99.1534L184.82 99.4318C185.086 99.5014 185.38 99.5975 185.705 99.7202C186.033 99.8428 186.347 100.01 186.645 100.222C186.947 100.431 187.195 100.7 187.391 101.028C187.586 101.356 187.684 101.759 187.684 102.236C187.684 102.786 187.54 103.283 187.251 103.727C186.966 104.171 186.549 104.524 185.999 104.786C185.452 105.048 184.787 105.179 184.005 105.179C182.911 105.179 182.043 104.92 181.4 104.403C180.757 103.886 180.406 103.21 180.346 102.375H181.619C181.652 102.759 181.781 103.078 182.006 103.33C182.235 103.578 182.523 103.764 182.871 103.886C183.223 104.006 183.601 104.065 184.005 104.065C184.476 104.065 184.898 103.989 185.273 103.837C185.647 103.681 185.944 103.465 186.163 103.19C186.381 102.912 186.491 102.587 186.491 102.216C186.491 101.878 186.396 101.603 186.207 101.391C186.019 101.179 185.77 101.006 185.462 100.874C185.153 100.741 184.82 100.625 184.462 100.526L183.21 100.168C182.414 99.9389 181.784 99.6125 181.32 99.1882C180.856 98.764 180.624 98.2088 180.624 97.5227C180.624 96.9527 180.778 96.4555 181.087 96.0312C181.398 95.6037 181.816 95.2723 182.34 95.0369C182.867 94.7983 183.455 94.679 184.104 94.679C184.761 94.679 185.344 94.7966 185.854 95.032C186.365 95.264 186.769 95.5821 187.068 95.9865C187.369 96.3909 187.528 96.8499 187.545 97.3636H186.352ZM192.453 97.3636V98.358H190.822V102.812C190.822 103.144 190.87 103.393 190.967 103.558C191.066 103.721 191.192 103.83 191.344 103.886C191.5 103.939 191.664 103.966 191.837 103.966C191.966 103.966 192.072 103.959 192.155 103.946C192.238 103.929 192.304 103.916 192.354 103.906L192.592 104.96C192.513 104.99 192.402 105.02 192.259 105.05C192.117 105.083 191.936 105.099 191.717 105.099C191.386 105.099 191.061 105.028 190.743 104.886C190.428 104.743 190.166 104.526 189.957 104.234C189.752 103.943 189.649 103.575 189.649 103.131V98.358H188.496V97.3636H189.649V95.5341H190.822V97.3636H192.453ZM198.611 101.878V97.3636H199.784V105H198.611V103.707H198.531C198.352 104.095 198.074 104.425 197.696 104.697C197.318 104.965 196.841 105.099 196.264 105.099C195.548 105.099 194.958 104.862 194.494 104.388C194.03 103.915 193.798 103.19 193.798 102.216V97.3636H194.971V102.136C194.971 102.693 195.127 103.137 195.439 103.469C195.753 103.8 196.155 103.966 196.642 103.966C196.933 103.966 197.23 103.891 197.532 103.742C197.837 103.593 198.092 103.364 198.297 103.056C198.506 102.748 198.611 102.355 198.611 101.878ZM204.396 105.159C203.76 105.159 203.198 104.998 202.711 104.677C202.224 104.352 201.843 103.895 201.567 103.305C201.292 102.711 201.155 102.01 201.155 101.202C201.155 100.4 201.292 99.7036 201.567 99.1136C201.843 98.5237 202.225 98.0679 202.716 97.7464C203.206 97.425 203.773 97.2642 204.416 97.2642C204.913 97.2642 205.306 97.3471 205.594 97.5128C205.886 97.6752 206.108 97.8608 206.261 98.0696C206.416 98.2751 206.537 98.4441 206.624 98.5767H206.723V94.8182H207.896V105H206.763V103.827H206.624C206.537 103.966 206.415 104.142 206.256 104.354C206.097 104.562 205.87 104.75 205.575 104.915C205.28 105.078 204.887 105.159 204.396 105.159ZM204.555 104.105C205.261 104.105 205.802 103.835 206.176 103.295C206.554 102.751 206.743 102.047 206.743 101.182C206.743 100.327 206.557 99.6357 206.186 99.1087C205.815 98.5817 205.271 98.3182 204.555 98.3182C204.058 98.3182 203.644 98.4458 203.312 98.701C202.984 98.9529 202.737 99.2959 202.572 99.7301C202.409 100.161 202.328 100.645 202.328 101.182C202.328 101.725 202.411 102.219 202.577 102.663C202.746 103.104 202.994 103.455 203.322 103.717C203.654 103.976 204.065 104.105 204.555 104.105ZM212.99 105.159C212.254 105.159 211.619 104.997 211.086 104.672C210.555 104.344 210.146 103.886 209.858 103.3C209.573 102.71 209.43 102.024 209.43 101.241C209.43 100.459 209.573 99.7699 209.858 99.1733C210.146 98.5734 210.547 98.1061 211.061 97.7713C211.578 97.4332 212.181 97.2642 212.87 97.2642C213.268 97.2642 213.661 97.3305 214.049 97.4631C214.437 97.5956 214.79 97.8111 215.108 98.1094C215.426 98.4044 215.679 98.7955 215.868 99.2827C216.057 99.7699 216.152 100.37 216.152 101.082V101.58H210.608C210.635 102.395 210.865 103.02 211.299 103.454C211.737 103.888 212.3 104.105 212.99 104.105C213.45 104.105 213.847 104.006 214.178 103.807C214.509 103.608 214.75 103.31 214.899 102.912L216.032 103.23C215.853 103.807 215.495 104.272 214.959 104.627C214.422 104.982 213.765 105.159 212.99 105.159ZM210.608 100.565H214.959C214.959 99.919 214.77 99.3838 214.392 98.9595C214.014 98.532 213.507 98.3182 212.87 98.3182C212.423 98.3182 212.035 98.4226 211.707 98.6314C211.379 98.8402 211.12 99.117 210.932 99.4616C210.743 99.803 210.635 100.171 210.608 100.565ZM218.69 100.406V105H217.517V97.3636H218.65V98.5568H218.749C218.928 98.169 219.2 97.8575 219.565 97.6222C219.929 97.3835 220.4 97.2642 220.977 97.2642C221.749 97.2642 222.372 97.5012 222.846 97.9751C223.323 98.4491 223.562 99.1733 223.562 100.148V105H222.389V100.227C222.389 99.6274 222.233 99.16 221.921 98.8253C221.61 98.4872 221.182 98.3182 220.639 98.3182C220.079 98.3182 219.613 98.5005 219.242 98.8651C218.874 99.2263 218.69 99.7401 218.69 100.406ZM228.607 97.3636V98.358H226.976V102.812C226.976 103.144 227.024 103.393 227.12 103.558C227.22 103.721 227.346 103.83 227.498 103.886C227.654 103.939 227.818 103.966 227.991 103.966C228.12 103.966 228.226 103.959 228.309 103.946C228.392 103.929 228.458 103.916 228.508 103.906L228.746 104.96C228.667 104.99 228.556 105.02 228.413 105.05C228.271 105.083 228.09 105.099 227.871 105.099C227.54 105.099 227.215 105.028 226.897 104.886C226.582 104.743 226.32 104.526 226.111 104.234C225.906 103.943 225.803 103.575 225.803 103.131V98.358H224.65V97.3636H225.803V95.5341H226.976V97.3636H228.607ZM235.224 99.0739L234.17 99.3722C234.068 99.107 233.895 98.8584 233.653 98.6264C233.411 98.3944 233.033 98.2784 232.52 98.2784C232.052 98.2784 231.663 98.3861 231.351 98.6016C231.043 98.8137 230.889 99.0838 230.889 99.4119C230.889 99.7036 230.995 99.9339 231.207 100.103C231.419 100.272 231.751 100.413 232.202 100.526L233.335 100.804C234.687 101.135 235.363 101.825 235.363 102.872C235.363 103.31 235.238 103.701 234.986 104.045C234.737 104.39 234.389 104.662 233.942 104.861C233.494 105.06 232.974 105.159 232.381 105.159C231.602 105.159 230.957 104.99 230.447 104.652C229.936 104.314 229.613 103.82 229.477 103.17L230.591 102.892C230.8 103.714 231.39 104.125 232.361 104.125C232.908 104.125 233.342 104.009 233.663 103.777C233.988 103.542 234.15 103.26 234.15 102.932C234.15 102.392 233.773 102.034 233.017 101.858L231.744 101.56C231.045 101.394 230.531 101.137 230.203 100.789C229.878 100.438 229.716 99.9986 229.716 99.4716C229.716 99.0407 229.837 98.6596 230.079 98.3281C230.324 97.9967 230.657 97.7365 231.078 97.5476C231.502 97.3587 231.983 97.2642 232.52 97.2642C233.275 97.2642 233.869 97.4299 234.3 97.7614C234.734 98.0928 235.042 98.5303 235.224 99.0739ZM240.227 105V97.3636H241.4V105H240.227ZM240.824 96.0909C240.595 96.0909 240.398 96.013 240.232 95.8572C240.07 95.7015 239.989 95.5142 239.989 95.2955C239.989 95.0767 240.07 94.8894 240.232 94.7337C240.398 94.5779 240.595 94.5 240.824 94.5C241.052 94.5 241.248 94.5779 241.41 94.7337C241.576 94.8894 241.659 95.0767 241.659 95.2955C241.659 95.5142 241.576 95.7015 241.41 95.8572C241.248 96.013 241.052 96.0909 240.824 96.0909ZM244.303 100.406V105H243.129V97.3636H244.263V98.5568H244.362C244.541 98.169 244.813 97.8575 245.178 97.6222C245.542 97.3835 246.013 97.2642 246.59 97.2642C247.362 97.2642 247.985 97.5012 248.459 97.9751C248.936 98.4491 249.175 99.1733 249.175 100.148V105H248.002V100.227C248.002 99.6274 247.846 99.16 247.534 98.8253C247.223 98.4872 246.795 98.3182 246.252 98.3182C245.691 98.3182 245.226 98.5005 244.855 98.8651C244.487 99.2263 244.303 99.7401 244.303 100.406ZM257.737 97.3636V98.358H256.107V102.812C256.107 103.144 256.155 103.393 256.251 103.558C256.35 103.721 256.476 103.83 256.629 103.886C256.784 103.939 256.949 103.966 257.121 103.966C257.25 103.966 257.356 103.959 257.439 103.946C257.522 103.929 257.588 103.916 257.638 103.906L257.877 104.96C257.797 104.99 257.686 105.02 257.543 105.05C257.401 105.083 257.22 105.099 257.002 105.099C256.67 105.099 256.345 105.028 256.027 104.886C255.712 104.743 255.45 104.526 255.242 104.234C255.036 103.943 254.933 103.575 254.933 103.131V98.358H253.78V97.3636H254.933V95.5341H256.107V97.3636H257.737ZM260.42 100.406V105H259.246V94.8182H260.42V98.5568H260.519C260.698 98.1624 260.967 97.8492 261.324 97.6172C261.686 97.3819 262.166 97.2642 262.766 97.2642C263.548 97.2642 264.178 97.4995 264.655 97.9702C265.133 98.4408 265.371 99.1667 265.371 100.148V105H264.198V100.227C264.198 99.6207 264.041 99.1518 263.726 98.8203C263.414 98.4856 262.982 98.3182 262.428 98.3182C261.848 98.3182 261.368 98.5005 260.986 98.8651C260.609 99.2263 260.42 99.7401 260.42 100.406ZM267.098 105V97.3636H268.271V105H267.098ZM267.694 96.0909C267.466 96.0909 267.269 96.013 267.103 95.8572C266.94 95.7015 266.859 95.5142 266.859 95.2955C266.859 95.0767 266.94 94.8894 267.103 94.7337C267.269 94.5779 267.466 94.5 267.694 94.5C267.923 94.5 268.119 94.5779 268.281 94.7337C268.447 94.8894 268.53 95.0767 268.53 95.2955C268.53 95.5142 268.447 95.7015 268.281 95.8572C268.119 96.013 267.923 96.0909 267.694 96.0909ZM275.409 99.0739L274.355 99.3722C274.252 99.107 274.08 98.8584 273.838 98.6264C273.596 98.3944 273.218 98.2784 272.705 98.2784C272.237 98.2784 271.848 98.3861 271.536 98.6016C271.228 98.8137 271.074 99.0838 271.074 99.4119C271.074 99.7036 271.18 99.9339 271.392 100.103C271.604 100.272 271.936 100.413 272.386 100.526L273.52 100.804C274.872 101.135 275.548 101.825 275.548 102.872C275.548 103.31 275.422 103.701 275.171 104.045C274.922 104.39 274.574 104.662 274.127 104.861C273.679 105.06 273.159 105.159 272.565 105.159C271.787 105.159 271.142 104.99 270.632 104.652C270.121 104.314 269.798 103.82 269.662 103.17L270.776 102.892C270.984 103.714 271.574 104.125 272.546 104.125C273.092 104.125 273.527 104.009 273.848 103.777C274.173 103.542 274.335 103.26 274.335 102.932C274.335 102.392 273.957 102.034 273.202 101.858L271.929 101.56C271.23 101.394 270.716 101.137 270.388 100.789C270.063 100.438 269.901 99.9986 269.901 99.4716C269.901 99.0407 270.022 98.6596 270.264 98.3281C270.509 97.9967 270.842 97.7365 271.263 97.5476C271.687 97.3587 272.168 97.2642 272.705 97.2642C273.46 97.2642 274.054 97.4299 274.484 97.7614C274.919 98.0928 275.227 98.5303 275.409 99.0739ZM288.764 98H287.531C287.432 97.5294 287.241 97.1333 286.96 96.8118C286.678 96.4903 286.338 96.2467 285.94 96.081C285.543 95.9152 285.119 95.8324 284.668 95.8324C284.051 95.8324 283.493 95.9882 282.992 96.2997C282.495 96.6113 282.099 97.0703 281.804 97.6768C281.512 98.2834 281.367 99.0275 281.367 99.9091C281.367 100.791 281.512 101.535 281.804 102.141C282.099 102.748 282.495 103.207 282.992 103.518C283.493 103.83 284.051 103.986 284.668 103.986C285.119 103.986 285.543 103.903 285.94 103.737C286.338 103.571 286.678 103.328 286.96 103.006C287.241 102.685 287.432 102.289 287.531 101.818H288.764C288.638 102.514 288.382 103.111 287.994 103.608C287.606 104.102 287.125 104.481 286.552 104.746C285.979 105.008 285.351 105.139 284.668 105.139C283.799 105.139 283.027 104.927 282.351 104.503C281.675 104.079 281.143 103.475 280.755 102.693C280.367 101.911 280.173 100.983 280.173 99.9091C280.173 98.8352 280.367 97.9072 280.755 97.125C281.143 96.3428 281.675 95.7396 282.351 95.3153C283.027 94.8911 283.799 94.679 284.668 94.679C285.351 94.679 285.979 94.8116 286.552 95.0767C287.125 95.3385 287.606 95.718 287.994 96.2152C288.382 96.709 288.638 97.304 288.764 98ZM291.351 94.8182V105H290.178V94.8182H291.351ZM295.327 105.179C294.843 105.179 294.404 105.088 294.01 104.906C293.615 104.72 293.302 104.453 293.07 104.105C292.838 103.754 292.722 103.33 292.722 102.832C292.722 102.395 292.808 102.04 292.98 101.768C293.153 101.493 293.383 101.278 293.671 101.122C293.96 100.966 294.278 100.85 294.626 100.774C294.977 100.695 295.33 100.632 295.685 100.585C296.149 100.526 296.525 100.481 296.814 100.451C297.105 100.418 297.317 100.363 297.45 100.287C297.586 100.211 297.654 100.078 297.654 99.8892V99.8494C297.654 99.3589 297.52 98.9777 297.251 98.706C296.986 98.4342 296.583 98.2983 296.043 98.2983C295.483 98.2983 295.044 98.4209 294.725 98.6662C294.407 98.9115 294.184 99.1733 294.054 99.4517L292.941 99.054C293.14 98.59 293.405 98.2287 293.736 97.9702C294.071 97.7083 294.435 97.526 294.83 97.4233C295.228 97.3172 295.619 97.2642 296.003 97.2642C296.248 97.2642 296.53 97.294 296.848 97.3537C297.17 97.41 297.48 97.5277 297.778 97.7067C298.08 97.8857 298.33 98.1558 298.529 98.517C298.728 98.8783 298.827 99.3622 298.827 99.9688V105H297.654V103.966H297.594C297.515 104.132 297.382 104.309 297.196 104.498C297.011 104.687 296.764 104.848 296.456 104.98C296.147 105.113 295.771 105.179 295.327 105.179ZM295.506 104.125C295.97 104.125 296.361 104.034 296.679 103.852C297.001 103.669 297.243 103.434 297.405 103.146C297.571 102.857 297.654 102.554 297.654 102.236V101.162C297.604 101.222 297.495 101.276 297.326 101.326C297.16 101.372 296.968 101.414 296.749 101.45C296.533 101.483 296.323 101.513 296.118 101.54C295.915 101.563 295.751 101.583 295.625 101.599C295.32 101.639 295.035 101.704 294.77 101.793C294.508 101.879 294.296 102.01 294.134 102.186C293.975 102.358 293.895 102.594 293.895 102.892C293.895 103.3 294.046 103.608 294.348 103.817C294.653 104.022 295.039 104.125 295.506 104.125ZM305.958 99.0739L304.904 99.3722C304.801 99.107 304.629 98.8584 304.387 98.6264C304.145 98.3944 303.767 98.2784 303.253 98.2784C302.786 98.2784 302.396 98.3861 302.085 98.6016C301.777 98.8137 301.622 99.0838 301.622 99.4119C301.622 99.7036 301.728 99.9339 301.941 100.103C302.153 100.272 302.484 100.413 302.935 100.526L304.068 100.804C305.421 101.135 306.097 101.825 306.097 102.872C306.097 103.31 305.971 103.701 305.719 104.045C305.47 104.39 305.122 104.662 304.675 104.861C304.228 105.06 303.707 105.159 303.114 105.159C302.335 105.159 301.69 104.99 301.18 104.652C300.67 104.314 300.346 103.82 300.21 103.17L301.324 102.892C301.533 103.714 302.123 104.125 303.094 104.125C303.641 104.125 304.075 104.009 304.397 103.777C304.721 103.542 304.884 103.26 304.884 102.932C304.884 102.392 304.506 102.034 303.75 101.858L302.478 101.56C301.778 101.394 301.264 101.137 300.936 100.789C300.612 100.438 300.449 99.9986 300.449 99.4716C300.449 99.0407 300.57 98.6596 300.812 98.3281C301.057 97.9967 301.39 97.7365 301.811 97.5476C302.236 97.3587 302.716 97.2642 303.253 97.2642C304.009 97.2642 304.602 97.4299 305.033 97.7614C305.467 98.0928 305.775 98.5303 305.958 99.0739ZM312.852 99.0739L311.798 99.3722C311.695 99.107 311.523 98.8584 311.281 98.6264C311.039 98.3944 310.661 98.2784 310.148 98.2784C309.68 98.2784 309.291 98.3861 308.979 98.6016C308.671 98.8137 308.517 99.0838 308.517 99.4119C308.517 99.7036 308.623 99.9339 308.835 100.103C309.047 100.272 309.379 100.413 309.829 100.526L310.963 100.804C312.315 101.135 312.991 101.825 312.991 102.872C312.991 103.31 312.865 103.701 312.613 104.045C312.365 104.39 312.017 104.662 311.569 104.861C311.122 105.06 310.602 105.159 310.008 105.159C309.229 105.159 308.585 104.99 308.074 104.652C307.564 104.314 307.241 103.82 307.105 103.17L308.219 102.892C308.427 103.714 309.017 104.125 309.988 104.125C310.535 104.125 310.97 104.009 311.291 103.777C311.616 103.542 311.778 103.26 311.778 102.932C311.778 102.392 311.4 102.034 310.645 101.858L309.372 101.56C308.673 101.394 308.159 101.137 307.831 100.789C307.506 100.438 307.344 99.9986 307.344 99.4716C307.344 99.0407 307.465 98.6596 307.706 98.3281C307.952 97.9967 308.285 97.7365 308.706 97.5476C309.13 97.3587 309.611 97.2642 310.148 97.2642C310.903 97.2642 311.497 97.4299 311.927 97.7614C312.362 98.0928 312.67 98.5303 312.852 99.0739ZM317.539 105.159C316.803 105.159 316.169 104.997 315.635 104.672C315.105 104.344 314.695 103.886 314.407 103.3C314.122 102.71 313.98 102.024 313.98 101.241C313.98 100.459 314.122 99.7699 314.407 99.1733C314.695 98.5734 315.096 98.1061 315.61 97.7713C316.127 97.4332 316.73 97.2642 317.42 97.2642C317.818 97.2642 318.21 97.3305 318.598 97.4631C318.986 97.5956 319.339 97.8111 319.657 98.1094C319.975 98.4044 320.229 98.7955 320.418 99.2827C320.607 99.7699 320.701 100.37 320.701 101.082V101.58H315.158C315.184 102.395 315.415 103.02 315.849 103.454C316.286 103.888 316.85 104.105 317.539 104.105C318 104.105 318.396 104.006 318.727 103.807C319.059 103.608 319.299 103.31 319.448 102.912L320.582 103.23C320.403 103.807 320.045 104.272 319.508 104.627C318.971 104.982 318.315 105.159 317.539 105.159ZM315.158 100.565H319.508C319.508 99.919 319.319 99.3838 318.941 98.9595C318.563 98.532 318.056 98.3182 317.42 98.3182C316.972 98.3182 316.585 98.4226 316.256 98.6314C315.928 98.8402 315.67 99.117 315.481 99.4616C315.292 99.803 315.184 100.171 315.158 100.565ZM327.475 99.0739L326.421 99.3722C326.318 99.107 326.146 98.8584 325.904 98.6264C325.662 98.3944 325.284 98.2784 324.77 98.2784C324.303 98.2784 323.914 98.3861 323.602 98.6016C323.294 98.8137 323.14 99.0838 323.14 99.4119C323.14 99.7036 323.246 99.9339 323.458 100.103C323.67 100.272 324.002 100.413 324.452 100.526L325.586 100.804C326.938 101.135 327.614 101.825 327.614 102.872C327.614 103.31 327.488 103.701 327.236 104.045C326.988 104.39 326.64 104.662 326.192 104.861C325.745 105.06 325.225 105.159 324.631 105.159C323.852 105.159 323.208 104.99 322.697 104.652C322.187 104.314 321.864 103.82 321.728 103.17L322.841 102.892C323.05 103.714 323.64 104.125 324.611 104.125C325.158 104.125 325.592 104.009 325.914 103.777C326.239 103.542 326.401 103.26 326.401 102.932C326.401 102.392 326.023 102.034 325.268 101.858L323.995 101.56C323.296 101.394 322.782 101.137 322.454 100.789C322.129 100.438 321.966 99.9986 321.966 99.4716C321.966 99.0407 322.087 98.6596 322.329 98.3281C322.575 97.9967 322.908 97.7365 323.329 97.5476C323.753 97.3587 324.234 97.2642 324.77 97.2642C325.526 97.2642 326.119 97.4299 326.55 97.7614C326.984 98.0928 327.293 98.5303 327.475 99.0739Z" fill="#485162"/>
</svg>
