<svg width="260" height="152" viewBox="0 0 260 152" fill="none" xmlns="http://www.w3.org/2000/svg">
<rect width="260" height="152" fill="white"/>
<path d="M128.333 114.017L125.503 116.333H122.5V119.667H125.503L128.333 121.983V114.017ZM124.908 121.333H121.667C121.446 121.333 121.234 121.246 121.077 121.089C120.921 120.933 120.833 120.721 120.833 120.5V115.5C120.833 115.279 120.921 115.067 121.077 114.911C121.234 114.754 121.446 114.667 121.667 114.667H124.908L129.319 111.057C129.38 111.007 129.454 110.975 129.533 110.965C129.611 110.956 129.69 110.969 129.762 111.002C129.833 111.036 129.893 111.089 129.936 111.156C129.978 111.223 130 111.3 130 111.379V124.621C130 124.7 129.978 124.777 129.936 124.844C129.893 124.911 129.833 124.964 129.762 124.998C129.69 125.031 129.611 125.044 129.533 125.035C129.454 125.025 129.38 124.993 129.319 124.943L124.908 121.333H124.908ZM137.012 118L139.958 120.947L138.78 122.125L135.833 119.178L132.887 122.125L131.708 120.947L134.655 118L131.708 115.053L132.887 113.875L135.833 116.822L138.78 113.875L139.958 115.053L137.012 118Z" fill="#A6B1C6"/>
<circle cx="44" cy="44" r="12" fill="#F3F6FB"/>
<circle cx="44" cy="44" r="4" fill="#161C27"/>
<path d="M48.1466 118.347L39.3141 124.235C39.2514 124.277 39.1785 124.301 39.1032 124.304C39.0279 124.308 38.9531 124.291 38.8866 124.255C38.8202 124.22 38.7646 124.167 38.7259 124.102C38.6871 124.038 38.6667 123.964 38.6666 123.888V112.112C38.6667 112.036 38.6871 111.962 38.7259 111.898C38.7646 111.833 38.8202 111.78 38.8866 111.745C38.9531 111.709 39.0279 111.692 39.1032 111.696C39.1785 111.699 39.2514 111.723 39.3141 111.765L48.1466 117.653C48.2037 117.691 48.2505 117.743 48.2828 117.803C48.3152 117.864 48.3321 117.931 48.3321 118C48.3321 118.069 48.3152 118.136 48.2828 118.197C48.2505 118.257 48.2037 118.309 48.1466 118.347Z" fill="#161C27"/>
<path d="M218 109.667C222.603 109.667 226.333 113.397 226.333 118C226.333 122.602 222.603 126.333 218 126.333C213.398 126.333 209.667 122.602 209.667 118H211.333C211.333 121.682 214.318 124.667 218 124.667C221.682 124.667 224.667 121.682 224.667 118C224.667 114.318 221.682 111.333 218 111.333C215.708 111.333 213.687 112.489 212.488 114.25H214.667V115.917H209.667V110.917H211.333V113C212.853 110.975 215.274 109.667 218 109.667ZM218.833 113.833V117.654L221.536 120.357L220.357 121.536L217.167 118.344V113.833H218.833Z" fill="#A6B1C6"/>
<rect x="72" y="36" width="98" height="4" fill="#161C27"/>
<rect x="72" y="48" width="147" height="4" fill="#F3F6FB"/>
<rect opacity="0.5" x="32" y="80" width="196" height="4" fill="#F3F6FB"/>
<rect x="32" y="80" width="99" height="4" fill="#161C27"/>
</svg>
