<svg width="24" height="24" viewBox="0 0 24 24" fill="none" xmlns="http://www.w3.org/2000/svg">
<path d="M3.9 4H20.1C20.3387 4 20.5676 4.09365 20.7364 4.26035C20.9052 4.42705 21 4.65314 21 4.88889V19.1111C21 19.3469 20.9052 19.573 20.7364 19.7397C20.5676 19.9064 20.3387 20 20.1 20H3.9C3.66131 20 3.43239 19.9064 3.2636 19.7397C3.09482 19.573 3 19.3469 3 19.1111V4.88889C3 4.65314 3.09482 4.42705 3.2636 4.26035C3.43239 4.09365 3.66131 4 3.9 4ZM12.054 11.7182L6.2832 6.87822L5.1177 8.23289L12.0657 14.0596L18.8886 8.22844L17.7114 6.88356L12.0549 11.7182H12.054Z" fill="#161C27"/>
</svg>
