<svg width="180" height="96" viewBox="0 0 180 96" fill="none" xmlns="http://www.w3.org/2000/svg">
<g clip-path="url(#clip0)">
<path d="M57.8199 50.6879L61.0709 49.8001C61.1246 50.5159 61.4592 51.1814 62.002 51.6519C62.6376 52.1792 63.4493 52.447 64.2744 52.4015C64.8893 52.4365 65.4989 52.2702 66.0107 51.9281C66.203 51.8 66.3609 51.6267 66.4705 51.4235C66.5801 51.2202 66.638 50.9932 66.6392 50.7623C66.6401 50.5709 66.5988 50.3817 66.5181 50.2081C66.4374 50.0345 66.3193 49.8808 66.1723 49.758C65.7718 49.4413 65.2933 49.2381 64.787 49.1697L62.4527 48.646C61.2523 48.425 60.1543 47.826 59.3193 46.9369C58.5972 46.1293 58.2058 45.0799 58.2231 43.9974C58.2225 43.3216 58.3732 42.6542 58.6639 42.044C58.9547 41.4338 59.3783 40.8962 59.9038 40.4705C61.0412 39.4829 62.5084 38.9578 64.0149 38.999C64.7804 38.9903 65.543 39.0958 66.2774 39.3119C66.8674 39.4783 67.4265 39.739 67.9329 40.084C68.3499 40.3836 68.7191 40.7442 69.0283 41.1538C69.3013 41.5033 69.5287 41.886 69.7052 42.2927C69.8448 42.6286 69.944 42.9799 70.0006 43.3391L66.9112 44.2269C66.8768 43.972 66.8023 43.7242 66.6904 43.4925C66.562 43.2265 66.398 42.9791 66.2029 42.7572C65.9611 42.4906 65.6587 42.2861 65.3212 42.1608C64.9047 42.0007 64.4611 41.9227 64.0149 41.9313C63.4271 41.9098 62.8509 42.0976 62.3889 42.4613C62.1907 42.6072 62.0291 42.7971 61.9169 43.016C61.8047 43.235 61.745 43.477 61.7425 43.723C61.7402 43.9175 61.7777 44.1104 61.8527 44.2899C61.9277 44.4694 62.0387 44.6317 62.1788 44.7667C62.5003 45.0726 62.9074 45.2734 63.346 45.3425L65.7243 45.8312C66.9654 46.0346 68.1134 46.6158 69.0112 47.4955C69.7613 48.2724 70.1723 49.3146 70.1541 50.3937C70.154 51.0438 70.0274 51.6876 69.7815 52.2895C69.5265 52.9112 69.1636 53.4831 68.7095 53.9789C68.1944 54.5255 67.563 54.9497 66.8619 55.22C66.0468 55.544 65.1758 55.7046 64.2986 55.6925C63.3126 55.708 62.3327 55.5357 61.4112 55.185C60.6502 54.9067 59.962 54.46 59.3983 53.8785C58.9473 53.4018 58.5697 52.8608 58.2778 52.2733C58.0344 51.7753 57.8794 51.2389 57.8199 50.6879V50.6879Z" fill="#A6B1C6"/>
<path d="M70.1632 42.7859V39.4913H70.9712C71.3051 39.5153 71.6403 39.4668 71.9537 39.3492C72.2671 39.2315 72.5512 39.0475 72.7866 38.8097C73.2123 38.3117 73.4322 37.6704 73.4016 37.0163V34.6364H76.7954V39.4913H80.0616V42.7859H76.7954V50.1176C76.77 50.3896 76.7995 50.664 76.8822 50.9244C76.9648 51.1849 77.099 51.4261 77.2766 51.6339C77.7047 51.9828 78.2525 52.1508 78.8029 52.102C79.2373 52.1029 79.6707 52.0603 80.0966 51.9747V55.0523C79.3564 55.3149 78.5722 55.4318 77.7875 55.3966C77.1558 55.4314 76.5236 55.3388 75.9285 55.1243C75.3334 54.9098 74.7876 54.578 74.3237 54.1484C73.8885 53.6908 73.5517 53.149 73.3341 52.5565C73.1166 51.964 73.0228 51.3332 73.0587 50.7031V42.7859H70.1632Z" fill="#A6B1C6"/>
<path d="M80.9919 50.9909C80.9648 50.3878 81.0677 49.7859 81.2937 49.226C81.5197 48.6661 81.8635 48.1612 82.3018 47.7456C83.265 46.8952 84.4661 46.3603 85.7431 46.2131L89.7833 45.5979C90.5614 45.4999 90.9505 45.1462 90.9505 44.537C90.9583 44.2291 90.8954 43.9236 90.7665 43.6437C90.6376 43.3639 90.4462 43.1173 90.2071 42.9229C89.5602 42.4587 88.7704 42.2364 87.976 42.2952C87.1456 42.2526 86.3311 42.5346 85.7054 43.0817C85.1412 43.6044 84.7939 44.3196 84.7322 45.0858L81.3205 44.3299C81.3915 43.5989 81.6063 42.889 81.9524 42.2411C82.2986 41.5931 82.7695 41.0197 83.3379 40.5538C84.6231 39.488 86.2575 38.9348 87.9266 39.0006C88.9838 38.9813 90.0362 39.1461 91.0367 39.4876C91.8417 39.7561 92.5694 40.2158 93.1573 40.8273C93.6693 41.3801 94.0628 42.0316 94.3137 42.7418C94.5698 43.4857 94.6967 44.2679 94.689 45.0545V52.6848C94.6759 53.5296 94.7444 54.3738 94.8937 55.2055H91.3491C91.1967 54.5495 91.1363 53.8756 91.1695 53.2031C90.6971 53.935 90.0534 54.541 89.294 54.9688C88.3842 55.4757 87.3537 55.7264 86.3124 55.6942C84.8968 55.7566 83.5137 55.2595 82.4625 54.3106C81.9948 53.8938 81.6216 53.382 81.3679 52.8095C81.1143 52.2369 80.9861 51.6169 80.9919 50.9909V50.9909ZM84.7322 50.7218C84.7275 50.9909 84.7792 51.2579 84.884 51.5058C84.9889 51.7537 85.1445 51.9769 85.3409 52.1611C85.5691 52.3657 85.8355 52.5232 86.1249 52.6244C86.4143 52.7257 86.7209 52.7688 87.027 52.7511C87.5357 52.7569 88.0422 52.685 88.5291 52.5377C88.9811 52.3969 89.4027 52.1724 89.7716 51.8759C90.1702 51.5418 90.4709 51.1061 90.6416 50.6151C90.8604 49.9951 90.965 49.3408 90.9505 48.6836V47.9742L86.8483 48.602C86.2807 48.6755 85.747 48.9133 85.3131 49.2862C85.1183 49.4689 84.9655 49.6916 84.8652 49.939C84.765 50.1864 84.7196 50.4525 84.7322 50.7191V50.7218Z" fill="#A6B1C6"/>
<path d="M97.2179 55.2075V39.4913H100.833V41.4498C101.28 40.6695 101.959 40.0475 102.776 39.6698C103.615 39.2528 104.539 39.0355 105.476 39.0349C106.478 39.0167 107.467 39.2563 108.349 39.7307C109.182 40.1836 109.844 40.8954 110.234 41.7582C110.751 40.8804 111.501 40.1618 112.4 39.6814C113.299 39.201 114.313 38.9773 115.331 39.0349C116.024 39.0297 116.713 39.1497 117.363 39.3891C118.002 39.6285 118.589 39.987 119.094 40.4454C119.65 40.9661 120.074 41.6117 120.33 42.3286C120.647 43.1862 120.801 44.095 120.786 45.0089V55.2075H117.267V45.5766C117.31 44.7244 117.042 43.8855 116.512 43.2163C116.225 42.9082 115.872 42.6684 115.48 42.5147C115.087 42.3611 114.665 42.2975 114.245 42.3286C113.803 42.3135 113.363 42.3958 112.956 42.5696C112.549 42.7435 112.186 43.0048 111.892 43.3347C111.282 44.02 110.957 44.9128 110.986 45.8294V55.2075H107.246V45.5766C107.286 44.7284 107.021 43.8939 106.498 43.2244C106.212 42.9124 105.858 42.6696 105.464 42.5142C105.07 42.3588 104.646 42.2951 104.224 42.3277C103.78 42.3095 103.339 42.3884 102.929 42.5588C102.52 42.7292 102.153 42.987 101.854 43.3141C101.246 44.0089 100.928 44.91 100.964 45.8321V55.2101L97.2179 55.2075Z" fill="#A6B1C6"/>
<path d="M123.48 61.3419V39.4912H127.126V41.5968C127.586 40.8309 128.259 40.215 129.063 39.8239C130.009 39.3459 131.057 39.1073 132.116 39.129C133.12 39.0807 134.122 39.2619 135.046 39.6588C135.969 40.0556 136.79 40.6577 137.445 41.4192C138.787 43.088 139.476 45.1868 139.385 47.3251C139.47 49.4898 138.748 51.6091 137.358 53.2723C136.696 54.038 135.869 54.6451 134.94 55.0486C134.01 55.4522 133.002 55.6419 131.989 55.6037C130.998 55.6228 130.015 55.4148 129.116 54.9958C128.36 54.6536 127.706 54.1205 127.218 53.4489V61.3401L123.48 61.3419ZM127.189 47.3278C127.127 48.6349 127.547 49.9193 128.37 50.9372C128.741 51.3802 129.206 51.7338 129.733 51.9715C130.259 52.2091 130.833 52.3245 131.41 52.3092C131.989 52.3256 132.564 52.2115 133.093 51.9753C133.621 51.7392 134.089 51.3871 134.463 50.9452C135.289 49.9255 135.709 48.6377 135.644 47.3278C135.706 46.0394 135.288 44.7739 134.471 43.7749C134.094 43.3358 133.622 42.987 133.092 42.7542C132.562 42.5214 131.986 42.4105 131.407 42.4298C130.831 42.4139 130.258 42.5275 129.732 42.7623C129.206 42.9972 128.739 43.3473 128.367 43.7866C127.55 44.7801 127.13 46.0407 127.189 47.3251V47.3278Z" fill="#A6B1C6"/>
<path d="M139.658 50.6879L142.909 49.8001C142.963 50.5159 143.298 51.1814 143.84 51.6519C144.476 52.1793 145.288 52.4471 146.114 52.4015C146.728 52.4363 147.338 52.2701 147.849 51.9281C148.042 51.8 148.199 51.6267 148.309 51.4235C148.419 51.2202 148.477 50.9932 148.478 50.7623C148.479 50.5709 148.437 50.3817 148.357 50.2081C148.276 50.0345 148.158 49.8808 148.011 49.758C147.611 49.4413 147.132 49.238 146.626 49.1697L144.292 48.646C143.092 48.4252 141.994 47.8262 141.16 46.9369C140.437 46.1298 140.045 45.0801 140.062 43.9974C140.062 43.3216 140.213 42.6542 140.503 42.044C140.794 41.4338 141.218 40.8962 141.743 40.4705C142.881 39.4829 144.348 38.9578 145.854 38.999C146.62 38.9903 147.382 39.0958 148.117 39.3119C148.707 39.4781 149.266 39.7389 149.772 40.084C150.189 40.3838 150.559 40.7444 150.869 41.1538C151.141 41.5035 151.368 41.8862 151.545 42.2927C151.684 42.6286 151.783 42.9799 151.84 43.3391L148.751 44.2269C148.717 43.9721 148.642 43.7242 148.531 43.4925C148.402 43.2266 148.237 42.9793 148.042 42.7572C147.8 42.4906 147.498 42.2861 147.161 42.1608C146.744 42.0006 146.3 41.9226 145.854 41.9313C145.267 41.9098 144.691 42.0977 144.229 42.4613C144.031 42.607 143.869 42.7969 143.757 43.0159C143.644 43.2348 143.584 43.4769 143.582 43.723C143.58 43.9175 143.617 44.1104 143.692 44.2899C143.767 44.4694 143.878 44.6317 144.018 44.7667C144.34 45.0724 144.747 45.2732 145.185 45.3425L147.563 45.8312C148.804 46.0344 149.953 46.6157 150.851 47.4955C151.6 48.2727 152.011 49.3148 151.993 50.3937C151.993 51.0438 151.866 51.6878 151.62 52.2895C151.365 52.9114 151.002 53.4834 150.548 53.9789C150.033 54.5256 149.402 54.9497 148.7 55.22C147.886 55.544 147.015 55.7045 146.138 55.6925C145.152 55.7081 144.171 55.5358 143.25 55.185C142.489 54.9065 141.801 54.4598 141.238 53.8785C140.787 53.4018 140.409 52.8608 140.117 52.2733C139.874 51.7752 139.719 51.2388 139.658 50.6879V50.6879Z" fill="#A6B1C6"/>
<path d="M30.6585 39.2043C30.6748 39.1614 30.6865 39.117 30.6935 39.0716C30.807 38.2651 31.2225 37.5316 31.8562 37.019C32.305 36.6617 32.8418 36.4315 33.4103 36.3527C33.4479 36.3471 33.4849 36.3378 33.5207 36.3249C33.6323 36.3134 33.7444 36.3077 33.8565 36.3079C34.6307 36.3034 35.3797 36.5819 35.9624 37.091C36.5451 37.6002 36.9211 38.3047 37.0195 39.0716C37.03 39.1932 37.0862 39.3064 37.1768 39.3882C37.2674 39.4701 37.3857 39.5146 37.5079 39.5128H37.6238C37.7461 39.515 37.8646 39.4707 37.9553 39.3887C38.0461 39.3068 38.1021 39.1934 38.1122 39.0716C38.2063 38.3065 38.5782 37.6026 39.1574 37.0932C39.7366 36.5837 40.4828 36.3043 41.2545 36.3079C42.0287 36.3034 42.7777 36.5819 43.3604 37.091C43.9431 37.6002 44.3191 38.3047 44.4175 39.0716C44.4279 39.1932 44.4841 39.3064 44.5748 39.3882C44.6654 39.4701 44.7837 39.5146 44.9059 39.5128H44.9957C45.118 39.515 45.2366 39.4707 45.3273 39.3887C45.418 39.3068 45.4741 39.1934 45.4841 39.0716C45.5819 38.3081 45.9549 37.6064 46.5333 37.0977C47.1117 36.589 47.8558 36.3082 48.6265 36.3079C49.4592 36.3078 50.2589 36.6335 50.8539 37.2154C51.4376 37.8109 51.7641 38.6113 51.7634 39.4447C51.7635 40.2146 51.4824 40.9582 50.9728 41.536C50.4632 42.1138 49.7602 42.4861 48.9955 42.5832C48.8736 42.5932 48.76 42.6492 48.678 42.7398C48.5959 42.8305 48.5515 42.9489 48.5537 43.0711V43.1607C48.5519 43.2828 48.5965 43.4009 48.6785 43.4915C48.7605 43.582 48.8737 43.6381 48.9955 43.6485C49.7634 43.7464 50.469 44.1217 50.9789 44.7036C51.4889 45.2854 51.7679 46.0336 51.7634 46.8068C51.767 47.5778 51.4871 48.3232 50.9769 48.9017C50.4667 49.4803 49.7616 49.8516 48.9955 49.9454C48.8736 49.9554 48.76 50.0114 48.678 50.102C48.5959 50.1926 48.5515 50.3111 48.5537 50.4332V50.5498C48.5521 50.6718 48.5968 50.7899 48.6787 50.8803C48.7607 50.9708 48.8738 51.027 48.9955 51.0376C49.7634 51.1355 50.469 51.5108 50.9789 52.0927C51.4889 52.6745 51.7679 53.4226 51.7634 54.1959C51.7634 54.2999 51.7581 54.4022 51.7482 54.5035C51.7316 54.5464 51.7195 54.5908 51.7123 54.6362C51.5995 55.4428 51.1843 56.1765 50.5505 56.6888C50.1013 57.0462 49.5642 57.2763 48.9955 57.3551C48.9583 57.361 48.9217 57.37 48.886 57.382C48.7741 57.3939 48.6617 57.3999 48.5493 57.3999C47.7752 57.4044 47.0263 57.1258 46.4437 56.6167C45.8612 56.1076 45.4854 55.4031 45.3872 54.6362C45.3767 54.5146 45.3205 54.4015 45.2299 54.3196C45.1393 54.2377 45.0209 54.1932 44.8987 54.195H44.782C44.6597 54.1928 44.5412 54.2372 44.4504 54.3191C44.3597 54.4011 44.3036 54.5144 44.2936 54.6362C44.1997 55.4013 43.8278 56.1055 43.2486 56.6149C42.6694 57.1244 41.923 57.4037 41.1513 57.3999C40.3771 57.4045 39.6281 57.1259 39.0454 56.6168C38.4627 56.1076 38.0867 55.4032 37.9883 54.6362C37.9778 54.5146 37.9216 54.4015 37.831 54.3196C37.7404 54.2377 37.622 54.1932 37.4999 54.195H37.4101C37.2878 54.1928 37.1692 54.2372 37.0785 54.3191C36.9878 54.4011 36.9317 54.5144 36.9216 54.6362C36.8242 55.3999 36.4513 56.1018 35.8729 56.6106C35.2944 57.1194 34.5501 57.4 33.7793 57.3999C32.9448 57.4011 32.1431 57.0752 31.5464 56.4924V56.4924C30.9631 55.8967 30.6369 55.0964 30.6378 54.2632C30.6378 53.4933 30.9187 52.7499 31.4281 52.1721C31.9375 51.5944 32.6403 51.2219 33.4049 51.1246C33.527 51.1148 33.6407 51.0589 33.723 50.9683C33.8052 50.8776 33.8498 50.7591 33.8475 50.6368V50.5471C33.8491 50.425 33.8043 50.3068 33.7222 50.2163C33.6401 50.1258 33.5267 50.0697 33.4049 50.0593C32.6371 49.9612 31.9318 49.5858 31.422 49.004C30.9123 48.4222 30.6333 47.6741 30.6378 46.901C30.6341 46.1301 30.9138 45.3847 31.4238 44.8062C31.9339 44.2276 32.6388 43.8562 33.4049 43.7624C33.527 43.7526 33.6407 43.6967 33.723 43.6061C33.8052 43.5155 33.8498 43.3969 33.8475 43.2746V43.158C33.8491 43.0359 33.8043 42.9177 33.7222 42.8272C33.6401 42.7367 33.5267 42.6806 33.4049 42.6702C32.6371 42.5721 31.9318 42.1967 31.422 41.6149C30.9123 41.0331 30.6333 40.285 30.6378 39.5119C30.6378 39.4079 30.6432 39.3057 30.6531 39.2043H30.6585ZM33.413 35.3278C33.3741 35.3177 33.3345 35.3108 33.2945 35.3071C32.236 35.4545 31.2722 35.9954 30.5957 36.8217C30.0847 37.4297 29.7561 38.1695 29.6476 38.9559C29.6502 38.9901 29.6556 39.024 29.6637 39.0573C29.65 39.1928 29.6431 39.329 29.6431 39.4653C29.6496 40.2214 29.8577 40.9621 30.246 41.6112C30.6344 42.2602 31.189 42.7942 31.8526 43.158C31.1888 43.522 30.6342 44.0561 30.2458 44.7053C29.8575 45.3545 29.6494 46.0954 29.6431 46.8517C29.6496 47.6078 29.8577 48.3485 30.246 48.9975C30.6344 49.6466 31.189 50.1806 31.8526 50.5444C31.1849 50.9037 30.627 51.4367 30.238 52.087C29.849 52.7372 29.6434 53.4805 29.6431 54.238C29.6431 54.3555 29.6484 54.4712 29.6574 54.5869C29.6446 54.6403 29.6404 54.6954 29.6449 54.7501C29.7682 55.6733 30.1937 56.5299 30.8551 57.1865C31.5125 57.8471 32.3701 58.2721 33.2945 58.3953C33.3496 58.3998 33.405 58.3956 33.4588 58.3828C33.5737 58.3926 33.6904 58.3971 33.808 58.3971C34.5663 58.3968 35.3104 58.1915 35.9614 57.803C36.6123 57.4144 37.1458 56.8571 37.5052 56.1902C37.8694 56.8532 38.4039 57.4072 39.0538 57.7951C39.7037 58.183 40.4454 58.3908 41.2024 58.3971C41.9596 58.391 42.7015 58.1832 43.3516 57.7953C44.0016 57.4074 44.5363 56.8533 44.9005 56.1902C45.2647 56.8532 45.7992 57.4072 46.4491 57.7951C47.099 58.183 47.8407 58.3908 48.5977 58.3971C48.7315 58.3971 48.8671 58.3908 48.9946 58.3783C49.0337 58.3885 49.0737 58.3951 49.114 58.398C50.1707 58.2505 51.1327 57.7099 51.8074 56.8843C52.3187 56.2764 52.6477 55.5366 52.7564 54.7501C52.7537 54.7159 52.7483 54.6821 52.7403 54.6488C52.7537 54.5143 52.76 54.3798 52.76 54.2408C52.7537 53.4847 52.5458 52.744 52.1575 52.095C51.7693 51.4459 51.2149 50.9119 50.5514 50.548C51.215 50.184 51.7695 49.6499 52.1578 49.0007C52.546 48.3514 52.7539 47.6106 52.76 46.8544C52.7537 46.0983 52.5458 45.3576 52.1575 44.7086C51.7693 44.0595 51.2149 43.5255 50.5514 43.1616C51.2189 42.8022 51.7767 42.2692 52.1655 41.6189C52.5543 40.9686 52.7597 40.2254 52.76 39.468C52.76 39.3505 52.7555 39.2339 52.7465 39.1191C52.7585 39.0656 52.7627 39.0107 52.7591 38.9559C52.6361 38.0324 52.2102 37.1756 51.548 36.5195C50.8912 35.8586 50.0337 35.4335 49.1095 35.3107C49.0544 35.3062 48.9989 35.3104 48.9452 35.3233C48.8303 35.3134 48.7135 35.3089 48.5959 35.3089C47.8376 35.3092 47.0936 35.5145 46.4426 35.9031C45.7917 36.2916 45.2582 36.8489 44.8987 37.5158C44.5345 36.8527 43.9998 36.2986 43.3498 35.9107C42.6997 35.5228 41.9578 35.3151 41.2006 35.3089C40.4436 35.3152 39.7019 35.523 39.052 35.9109C38.4021 36.2988 37.8676 36.8528 37.5034 37.5158C37.1392 36.8527 36.6045 36.2986 35.9545 35.9107C35.3044 35.5228 34.5625 35.3151 33.8053 35.3089C33.6716 35.3089 33.536 35.3152 33.4085 35.3278H33.413Z" fill="#A6B1C6"/>
<path d="M49.1381 59.1854L49.0555 59.1791C49.0214 59.1791 48.9864 59.1719 48.9523 59.1675C48.8356 59.1755 48.7171 59.18 48.5994 59.18C47.6886 59.1787 46.7959 58.9257 46.02 58.4492C45.6069 58.1967 45.2318 57.8869 44.9058 57.5291C44.4366 58.045 43.8654 58.4581 43.2283 58.7422C42.5911 59.0264 41.9019 59.1754 41.2041 59.18C40.2933 59.1787 39.4006 58.9257 38.6247 58.4492C38.2129 58.1971 37.8387 57.8883 37.5132 57.5318C37.1904 57.889 36.8179 58.1979 36.4071 58.4492C35.6253 58.9271 34.7264 59.18 33.8097 59.18C33.7056 59.18 33.6006 59.18 33.4964 59.1702C33.41 59.1809 33.3228 59.1827 33.236 59.1755H33.2136H33.1912C32.6402 59.1017 32.1053 58.9372 31.6083 58.6886C31.1252 58.4463 30.6847 58.1275 30.3038 57.7444C29.9202 57.3642 29.6012 56.9241 29.3593 56.4414C29.1096 55.9452 28.9445 55.4109 28.8709 54.8605V54.838V54.8156C28.8646 54.7289 28.8664 54.6419 28.8763 54.5556C28.87 54.4516 28.8673 54.3466 28.8673 54.2435C28.8669 53.328 29.1198 52.4302 29.5981 51.6492C29.8494 51.2382 30.1591 50.8658 30.5174 50.5436C30.1598 50.2189 29.8503 49.8451 29.5981 49.4334C29.1213 48.6584 28.8683 47.7668 28.8673 46.8571C28.8718 46.1603 29.0209 45.4719 29.3053 44.8355C29.5896 44.1992 30.003 43.6286 30.5192 43.1599C30.161 42.8343 29.8509 42.4597 29.5981 42.047C29.1213 41.272 28.8683 40.3804 28.8673 39.4707C28.8673 39.3461 28.8718 39.2205 28.8816 39.0959C28.878 39.0708 28.8753 39.0457 28.8735 39.0206L28.8673 38.9381L28.878 38.8555C29.0061 37.9245 29.3948 37.0486 29.9994 36.3286C30.7992 35.3487 31.9409 34.7079 33.1947 34.5351L33.2773 34.5234L33.3608 34.5297C33.395 34.5297 33.4291 34.5369 33.4632 34.5414C33.5808 34.5333 33.6993 34.5288 33.816 34.5288C34.7271 34.5304 35.6201 34.7833 36.3963 35.2597C36.8091 35.5122 37.184 35.822 37.5096 36.1797C37.9788 35.6639 38.55 35.2508 39.1872 34.9666C39.8243 34.6825 40.5136 34.5334 41.2113 34.5288C42.1224 34.5304 43.0154 34.7833 43.7916 35.2597C44.2035 35.5118 44.5776 35.8206 44.9031 36.177C45.2259 35.8199 45.5984 35.511 46.0092 35.2597C46.7911 34.7817 47.6899 34.5287 48.6066 34.5288C48.7108 34.5288 48.8158 34.5288 48.9191 34.5387C49.0057 34.5279 49.0933 34.5261 49.1803 34.5333H49.2019H49.2243C49.7753 34.607 50.3102 34.7715 50.8072 35.0202C51.2907 35.2622 51.7316 35.5811 52.1126 35.9645C52.4966 36.3443 52.8157 36.7845 53.0571 37.2674C53.3061 37.7638 53.4709 38.2981 53.5446 38.8484V38.8708V38.8932C53.551 38.9799 53.549 39.067 53.5383 39.1533C53.5446 39.2573 53.5482 39.3613 53.5482 39.4653C53.5483 40.3809 53.2951 41.2787 52.8165 42.0596C52.5655 42.4706 52.2561 42.843 51.898 43.1652C52.2556 43.4897 52.5648 43.8636 52.8165 44.2754C53.2936 45.0503 53.5469 45.942 53.5482 46.8517C53.5437 47.5487 53.3945 48.2371 53.11 48.8735C52.8255 49.5099 52.4119 50.0804 51.8953 50.549C52.2536 50.8741 52.5637 51.2485 52.8165 51.6609C53.2934 52.4362 53.5466 53.3281 53.5482 54.2381C53.5482 54.3628 53.5437 54.4883 53.5338 54.6121C53.5338 54.6372 53.5401 54.6632 53.5419 54.6883L53.5482 54.7708L53.5365 54.8533C53.4089 55.7842 53.0205 56.6602 52.4161 57.3803C51.6161 58.3603 50.474 59.0012 49.2198 59.1737L49.1381 59.1854ZM46.1682 54.5439C46.243 55.121 46.527 55.6506 46.9664 56.0326C47.4058 56.4147 47.9702 56.6226 48.5528 56.6171C48.6165 56.6171 48.6794 56.6172 48.7422 56.61C48.7844 56.5992 48.8266 56.5902 48.8697 56.5831H48.893C49.32 56.5233 49.7231 56.3502 50.0602 56.0818C50.5388 55.6955 50.8524 55.1418 50.9374 54.5331V54.5107C50.9462 54.4575 50.9579 54.4048 50.9724 54.3529C50.9724 54.3018 50.9778 54.2498 50.9778 54.1987C50.983 53.6166 50.7747 53.0528 50.3921 52.6138C50.0094 52.1748 49.479 51.891 48.9011 51.816C48.5889 51.7835 48.3 51.6362 48.0905 51.4026C47.8811 51.1691 47.7662 50.8661 47.7681 50.5525V50.436C47.7656 50.129 47.8757 49.8318 48.0777 49.6005C48.2797 49.3692 48.5595 49.2198 48.8643 49.1805H48.8868H48.9101C49.4827 49.1059 50.0084 48.8251 50.3886 48.3909C50.7688 47.9568 50.9773 47.3989 50.9751 46.8221C50.9804 46.2401 50.772 45.6763 50.3894 45.2373C50.0067 44.7983 49.4763 44.5145 48.8984 44.4395C48.5862 44.407 48.2973 44.2596 48.0879 44.0261C47.8784 43.7926 47.7635 43.4896 47.7654 43.176V43.0864C47.7629 42.7794 47.873 42.4822 48.075 42.2509C48.277 42.0195 48.5568 41.8702 48.8616 41.8309H48.884H48.9074C49.4775 41.7505 49.9998 41.4681 50.3789 41.0351C50.7579 40.6022 50.9686 40.0476 50.9724 39.4725C50.9738 38.8463 50.7299 38.2445 50.2927 37.7956C49.8434 37.3588 49.2408 37.1152 48.6138 37.1168C48.0363 37.1146 47.4778 37.3228 47.0431 37.7025C46.6084 38.0822 46.3273 38.6073 46.2525 39.1793V39.2026V39.225C46.2133 39.5294 46.0637 39.8089 45.8321 40.0107C45.6005 40.2124 45.3029 40.3225 44.9956 40.3199H44.9058C44.5918 40.3219 44.2883 40.2071 44.0544 39.9979C43.8204 39.7888 43.6727 39.5002 43.6399 39.1882C43.5649 38.611 43.2807 38.0813 42.8412 37.6991C42.4016 37.3169 41.8372 37.1088 41.2544 37.1141C40.6769 37.1119 40.1185 37.3201 39.6837 37.6999C39.249 38.0796 38.9679 38.6046 38.8932 39.1766V39.1999V39.2223C38.8539 39.5267 38.7043 39.8062 38.4727 40.008C38.2411 40.2097 37.9435 40.3197 37.6362 40.3172H37.5204C37.2064 40.3192 36.9029 40.2044 36.669 39.9952C36.435 39.7861 36.2872 39.4975 36.2545 39.1856C36.1794 38.6083 35.8953 38.0786 35.4558 37.6964C35.0162 37.3143 34.4517 37.1061 33.869 37.1114C33.8061 37.1114 33.7424 37.1114 33.6795 37.1195C33.6382 37.1303 33.5952 37.1392 33.5521 37.1464H33.5287C33.1017 37.2059 32.6985 37.379 32.3616 37.6477C31.8824 38.0335 31.5687 38.5874 31.4844 39.1963V39.2187C31.4756 39.2719 31.4639 39.3246 31.4494 39.3766C31.4494 39.4277 31.4449 39.4797 31.4449 39.5308C31.4396 40.1127 31.6478 40.6764 32.0303 41.1154C32.4127 41.5544 32.9429 41.8383 33.5206 41.9134C33.8328 41.9459 34.1218 42.0933 34.3312 42.3268C34.5407 42.5604 34.6556 42.8634 34.6537 43.1769V43.2935C34.6562 43.6003 34.5462 43.8974 34.3444 44.1287C34.1426 44.36 33.863 44.5095 33.5584 44.5489H33.535H33.5117C32.9389 44.6234 32.4131 44.9041 32.0329 45.3383C31.6527 45.7726 31.4443 46.3305 31.4467 46.9073C31.4412 47.4892 31.6494 48.0528 32.0319 48.4917C32.4144 48.9306 32.9447 49.2143 33.5224 49.289C33.8347 49.322 34.1235 49.4696 34.3329 49.7032C34.5422 49.9369 34.6572 50.2399 34.6555 50.5534V50.6431C34.658 50.9499 34.548 51.247 34.3462 51.4783C34.1444 51.7096 33.8648 51.8591 33.5601 51.8985H33.5368H33.5135C32.9433 51.979 32.4211 52.2614 32.042 52.6943C31.6629 53.1273 31.4523 53.6818 31.4485 54.257C31.4469 54.8829 31.6909 55.4845 32.1281 55.9329C32.5772 56.3701 33.18 56.6138 33.807 56.6118C34.3828 56.6078 34.9379 56.3973 35.3714 56.0187C35.8048 55.6402 36.0876 55.1187 36.1683 54.5493V54.526L36.1728 54.5026C36.2123 54.1984 36.3619 53.9191 36.5935 53.7175C36.8251 53.516 37.1226 53.4061 37.4297 53.4086H37.5195C37.8335 53.4067 38.137 53.5215 38.371 53.7307C38.6049 53.9398 38.7527 54.2284 38.7854 54.5403C38.8605 55.1174 39.1447 55.6471 39.5842 56.0291C40.0238 56.4112 40.5883 56.6191 41.1709 56.6136C41.7485 56.616 42.3071 56.4078 42.7418 56.028C43.1766 55.6483 43.4576 55.1231 43.5322 54.5511V54.5278L43.5367 54.5054C43.5759 54.2009 43.7255 53.9214 43.9571 53.7197C44.1887 53.5179 44.4863 53.4079 44.7936 53.4104H44.9103C45.2232 53.4106 45.5249 53.5265 45.7573 53.7358C45.9896 53.9452 46.136 54.2331 46.1682 54.5439V54.5439Z" fill="#A6B1C6"/>
<path d="M41.215 49.9124C40.6479 49.914 40.0861 49.8033 39.5621 49.5865C39.0381 49.3698 38.5624 49.0514 38.1625 48.6498C37.7604 48.2503 37.4416 47.7752 37.2247 47.2518C37.0077 46.7285 36.8968 46.1673 36.8983 45.6009C36.8983 45.347 36.9992 45.1036 37.1789 44.924C37.3585 44.7444 37.6022 44.6434 37.8563 44.6432C38.1105 44.6434 38.3541 44.7444 38.5338 44.924C38.7134 45.1036 38.8143 45.347 38.8143 45.6009C38.8152 46.2365 39.0685 46.8457 39.5185 47.2951C39.9686 47.7444 40.5787 47.9972 41.215 47.9979C41.8514 47.9972 42.4615 47.7444 42.9115 47.2951C43.3616 46.8457 43.6148 46.2365 43.6158 45.6009C43.6157 45.4752 43.6404 45.3507 43.6884 45.2345C43.7365 45.1183 43.8071 45.0127 43.896 44.9237C43.985 44.8348 44.0907 44.7642 44.2069 44.7161C44.3232 44.668 44.4479 44.6432 44.5738 44.6432C44.8279 44.6434 45.0716 44.7444 45.2512 44.924C45.4308 45.1036 45.5317 45.347 45.5317 45.6009C45.5333 46.1673 45.4223 46.7284 45.2053 47.2518C44.9884 47.7751 44.6696 48.2503 44.2676 48.6498C43.8676 49.0514 43.3919 49.3697 42.8679 49.5865C42.3439 49.8032 41.7822 49.914 41.215 49.9124V49.9124Z" fill="#A6B1C6"/>
</g>
<defs>
<clipPath id="clip0">
<rect width="124" height="27.6786" fill="white" transform="translate(28 33.6606)"/>
</clipPath>
</defs>
</svg>
