<svg width="180" height="96" viewBox="0 0 180 96" fill="none" xmlns="http://www.w3.org/2000/svg">
<path d="M67.7365 49.9666C67.7365 51.4231 67.4755 52.7825 66.9536 54.0448C66.4317 55.2948 65.7216 56.3812 64.8235 57.3036C63.9253 58.2139 62.8694 58.9361 61.6557 59.4701C60.4541 59.992 59.1615 60.253 57.7778 60.253C56.4063 60.253 55.1137 59.992 53.9 59.4701C52.6984 58.9361 51.6425 58.2139 50.7322 57.3036C49.834 56.3812 49.124 55.2948 48.6021 54.0448C48.0802 52.7825 47.8192 51.4231 47.8192 49.9666C47.8192 48.4859 48.0802 47.1144 48.6021 45.852C49.124 44.5898 49.834 43.5035 50.7322 42.5932C51.6425 41.6708 52.6984 40.9486 53.9 40.4267C55.1137 39.9048 56.4063 39.6439 57.7778 39.6439C59.1615 39.6439 60.4541 39.8927 61.6557 40.3903C62.8694 40.8758 63.9253 41.5737 64.8235 42.484C65.7216 43.3822 66.4317 44.4685 66.9536 45.7428C67.4755 47.0051 67.7365 48.413 67.7365 49.9666ZM62.7298 49.9666C62.7298 49.1656 62.5963 48.4434 62.3293 47.8001C62.0744 47.1447 61.7224 46.5864 61.2733 46.1252C60.8242 45.6518 60.2963 45.2938 59.6895 45.0511C59.0947 44.7962 58.4575 44.6687 57.7778 44.6687C57.0982 44.6687 56.4549 44.7962 55.848 45.0511C55.2533 45.2938 54.7314 45.6518 54.2823 46.1252C53.8454 46.5864 53.4995 47.1447 53.2446 47.8001C52.9897 48.4434 52.8623 49.1656 52.8623 49.9666C52.8623 50.7192 52.9897 51.417 53.2446 52.0604C53.4995 52.7036 53.8454 53.2619 54.2823 53.7352C54.7314 54.2086 55.2533 54.5849 55.848 54.864C56.4549 55.1311 57.0982 55.2646 57.7778 55.2646C58.4575 55.2646 59.0947 55.1371 59.6895 54.8822C60.2963 54.6273 60.8242 54.2693 61.2733 53.8081C61.7224 53.3469 62.0744 52.7885 62.3293 52.1331C62.5963 51.4777 62.7298 50.7555 62.7298 49.9666ZM74.0007 59.8888H68.9941V32.6346H74.0007V59.8888ZM82.1767 35.0924C82.1767 35.5536 82.0856 35.9845 81.9036 36.385C81.7336 36.7856 81.4969 37.1375 81.1936 37.441C80.8902 37.7323 80.5321 37.9689 80.1195 38.151C79.7188 38.3209 79.288 38.4059 78.8267 38.4059C78.3655 38.4059 77.9286 38.3209 77.5159 38.151C77.1155 37.9689 76.7635 37.7323 76.4601 37.441C76.1687 37.1375 75.932 36.7856 75.75 36.385C75.5801 35.9845 75.4951 35.5536 75.4951 35.0924C75.4951 34.6433 75.5801 34.2185 75.75 33.818C75.932 33.4053 76.1687 33.0533 76.4601 32.7621C76.7635 32.4586 77.1155 32.2219 77.5159 32.052C77.9286 31.87 78.3655 31.7789 78.8267 31.7789C79.288 31.7789 79.7188 31.87 80.1195 32.052C80.5321 32.2219 80.8902 32.4586 81.1936 32.7621C81.4969 33.0533 81.7336 33.4053 81.9036 33.818C82.0856 34.2185 82.1767 34.6433 82.1767 35.0924ZM81.321 59.8888H76.3144V40.3903H81.321V59.8888ZM89.1692 59.8888L81.7412 40.3903H87.4033L91.6634 52.5519L95.9054 40.3903H101.586L94.1577 59.8888H89.1692ZM109.161 55.1189C109.355 55.1795 109.549 55.2221 109.743 55.2464C109.938 55.2585 110.132 55.2646 110.326 55.2646C110.811 55.2646 111.279 55.1978 111.728 55.0642C112.177 54.9308 112.596 54.7426 112.984 54.5C113.385 54.245 113.737 53.9416 114.04 53.5896C114.355 53.2255 114.61 52.825 114.805 52.3881L118.446 56.0475C117.985 56.7029 117.45 57.2914 116.844 57.8134C116.249 58.3353 115.6 58.7783 114.896 59.1424C114.204 59.5065 113.469 59.7796 112.693 59.9616C111.928 60.1559 111.139 60.253 110.326 60.253C108.954 60.253 107.662 59.9981 106.448 59.4884C105.246 58.9785 104.191 58.2686 103.28 57.3583C102.382 56.4479 101.672 55.3678 101.15 54.1176C100.628 52.8552 100.367 51.4717 100.367 49.9666C100.367 48.4252 100.628 47.0173 101.15 45.7428C101.672 44.4685 102.382 43.3822 103.28 42.484C104.191 41.5858 105.246 40.8879 106.448 40.3903C107.662 39.8927 108.954 39.6439 110.326 39.6439C111.139 39.6439 111.934 39.741 112.711 39.9352C113.488 40.1294 114.222 40.4085 114.914 40.7727C115.618 41.1368 116.273 41.5858 116.88 42.1199C117.487 42.6418 118.021 43.2304 118.482 43.8859L109.161 55.1189ZM111.71 44.8689C111.479 44.784 111.248 44.7295 111.018 44.7051C110.799 44.6808 110.569 44.6687 110.326 44.6687C109.646 44.6687 109.003 44.7962 108.396 45.0511C107.801 45.2938 107.279 45.6457 106.83 46.107C106.393 46.5682 106.048 47.1265 105.793 47.7819C105.538 48.4252 105.41 49.1535 105.41 49.9666C105.41 50.1487 105.416 50.355 105.429 50.5857C105.453 50.8163 105.483 51.053 105.52 51.2956C105.568 51.5262 105.623 51.7508 105.683 51.9692C105.744 52.1877 105.823 52.382 105.92 52.5519L111.71 44.8689ZM124.473 59.8888H119.503V40.3903H120.705L122.343 42.7025C123.144 41.9742 124.055 41.4159 125.074 41.0275C126.094 40.627 127.15 40.4267 128.242 40.4267H132.63V45.3788H128.242C127.72 45.3788 127.229 45.4759 126.767 45.67C126.306 45.8642 125.906 46.1313 125.566 46.4711C125.226 46.811 124.959 47.2114 124.765 47.6727C124.57 48.1339 124.473 48.6255 124.473 49.1474V59.8888Z" fill="#A6B1C6"/>
</svg>
