<svg width="180" height="96" viewBox="0 0 180 96" fill="none" xmlns="http://www.w3.org/2000/svg">
<path d="M34.209 55.9999C34.3163 55.9999 34.3853 55.9002 34.416 55.7009C34.462 55.5016 34.393 55.1412 34.209 54.6199C34.1477 54.4206 34.0097 54.0679 33.795 53.5619C33.5957 53.0559 33.358 52.4732 33.082 51.8139C32.806 51.1546 32.5223 50.4876 32.231 49.8129C31.955 49.1382 31.702 48.5173 31.472 47.9499C31.242 47.3826 31.0657 46.9533 30.943 46.6619C30.7437 46.1406 30.529 45.7726 30.299 45.5579C30.0843 45.3433 29.908 45.2359 29.77 45.2359H34.462C34.37 45.2359 34.3087 45.3433 34.278 45.5579C34.2473 45.7726 34.3087 46.1406 34.462 46.6619C34.5387 46.9379 34.6613 47.3443 34.83 47.8809C35.014 48.4176 35.2133 49.0232 35.428 49.6979C35.658 50.3726 35.888 51.0626 36.118 51.7679C36.3633 52.4732 36.5857 53.1249 36.785 53.7229H36.808C36.9767 53.1096 37.1607 52.4502 37.36 51.7449C37.5593 51.0242 37.751 50.3266 37.935 49.6519C38.119 48.9619 38.28 48.3486 38.418 47.8119C38.5714 47.2753 38.6787 46.8766 38.74 46.6159C38.878 46.0946 38.9317 45.7343 38.901 45.5349C38.8704 45.3356 38.8167 45.2359 38.74 45.2359H43.846C43.754 45.2359 43.6927 45.3433 43.662 45.5579C43.6313 45.7726 43.6927 46.1406 43.846 46.6619C43.9227 46.9379 44.0377 47.3443 44.191 47.8809C44.3443 48.4176 44.513 49.0232 44.697 49.6979C44.881 50.3726 45.0727 51.0626 45.272 51.7679C45.4713 52.4732 45.6477 53.1249 45.801 53.7229H45.824C46.054 53.1096 46.2917 52.4502 46.537 51.7449C46.7977 51.0242 47.0507 50.3266 47.296 49.6519C47.5413 48.9619 47.756 48.3486 47.94 47.8119C48.124 47.2753 48.2467 46.8766 48.308 46.6159C48.446 46.1253 48.4997 45.7726 48.469 45.5579C48.4383 45.3433 48.3847 45.2359 48.308 45.2359H52.885C52.7777 45.2359 52.6243 45.3356 52.425 45.5349C52.2257 45.7343 52.0187 46.0869 51.804 46.5929C51.6967 46.8689 51.5203 47.2753 51.275 47.8119C51.0297 48.3486 50.7613 48.9466 50.47 49.6059C50.1787 50.2652 49.8873 50.9246 49.596 51.5839C49.3047 52.2432 49.044 52.8412 48.814 53.3779C48.5993 53.9146 48.446 54.3286 48.354 54.6199C48.2007 55.1106 48.1393 55.4632 48.17 55.6779C48.2007 55.8926 48.262 55.9999 48.354 55.9999H43.225C43.317 55.9999 43.3783 55.8926 43.409 55.6779C43.4397 55.4632 43.3783 55.1106 43.225 54.6199C43.179 54.4819 43.087 54.1676 42.949 53.6769C42.8263 53.1862 42.673 52.5959 42.489 51.9059C42.305 51.2006 42.1133 50.4722 41.914 49.7209C41.7147 48.9696 41.523 48.2566 41.339 47.5819H41.27C41.086 48.2259 40.8943 48.9159 40.695 49.6519C40.4957 50.3726 40.304 51.0779 40.12 51.7679C39.936 52.4426 39.7673 53.0406 39.614 53.5619C39.476 54.0679 39.384 54.4206 39.338 54.6199C39.2 55.1259 39.1463 55.4862 39.177 55.7009C39.2077 55.9002 39.2613 55.9999 39.338 55.9999H34.209ZM57.9928 56.2299C56.3828 56.2299 55.1178 56.0076 54.1978 55.5629C53.2931 55.1182 52.6568 54.4819 52.2888 53.6539C51.9208 52.8106 51.7368 51.8062 51.7368 50.6409C51.7368 48.9083 52.2198 47.5359 53.1858 46.5239C54.1518 45.5119 55.6315 45.0059 57.6248 45.0059C58.7901 45.0059 59.7331 45.1669 60.4538 45.4889C61.1898 45.8109 61.7495 46.2403 62.1328 46.7769C62.5161 47.3136 62.7768 47.9116 62.9148 48.5709C63.0681 49.2149 63.1448 49.8666 63.1448 50.5259V51.6069C63.1448 51.5609 62.9301 51.5149 62.5008 51.4689C62.0868 51.4076 61.3815 51.3769 60.3848 51.3769H55.0488C55.0488 52.2202 55.3018 52.8566 55.8078 53.2859C56.3291 53.6999 57.1725 53.9069 58.3378 53.9069C59.3191 53.9069 60.1931 53.7919 60.9598 53.5619C61.7418 53.3166 62.3091 53.0866 62.6618 52.8719V53.5619L62.8918 55.3099C62.6005 55.5092 62.0408 55.7162 61.2128 55.9309C60.3848 56.1302 59.3115 56.2299 57.9928 56.2299ZM55.8998 49.3989H59.8788C59.8788 49.0616 59.8021 48.7319 59.6488 48.4099C59.5108 48.0879 59.2808 47.8273 58.9588 47.6279C58.6368 47.4133 58.1921 47.3059 57.6248 47.3059C56.7815 47.3059 56.1758 47.4823 55.8078 47.8349C55.4398 48.1876 55.2558 48.5556 55.2558 48.9389C55.2558 49.0922 55.3018 49.2072 55.3938 49.2839C55.4858 49.3606 55.6545 49.3989 55.8998 49.3989ZM68.6971 56.2299C67.6391 56.2299 66.8725 56.0076 66.3971 55.5629C65.9218 55.1029 65.6841 54.3592 65.6841 53.3319V47.5359H63.6141V45.2359C64.3195 45.2359 64.8715 45.1516 65.2701 44.9829C65.6688 44.7989 65.9525 44.4846 66.1211 44.0399C66.2898 43.5953 66.3741 42.9743 66.3741 42.1769H68.9501V45.2359H72.8831C72.7758 45.5426 72.6685 45.9259 72.5611 46.3859C72.4691 46.8306 72.4231 47.2139 72.4231 47.5359H68.9501V52.0669C68.9501 52.7722 69.0038 53.2552 69.1111 53.5159C69.2185 53.7766 69.4715 53.9069 69.8701 53.9069C70.1308 53.9069 70.4145 53.8149 70.7211 53.6309C71.0431 53.4469 71.3498 53.2246 71.6411 52.9639C71.9478 52.6879 72.2008 52.4272 72.4001 52.1819V52.8949L72.6301 55.1259C72.3541 55.3712 71.8711 55.6166 71.1811 55.8619C70.4911 56.1072 69.6631 56.2299 68.6971 56.2299ZM73.1963 55.9999C73.3037 55.9999 73.4033 55.8926 73.4953 55.6779C73.6027 55.4632 73.6563 55.1106 73.6563 54.6199V46.8459C73.6563 46.3553 73.6027 46.0103 73.4953 45.8109C73.4033 45.5963 73.3037 45.4813 73.1963 45.4659C73.871 45.4659 74.561 45.4199 75.2663 45.3279C75.9717 45.2206 76.5237 45.1133 76.9223 45.0059V45.9259L76.8763 46.3169L76.9223 46.3629C77.0297 46.1943 77.1983 46.0103 77.4283 45.8109C77.6737 45.5963 77.9803 45.4123 78.3483 45.2589C78.7317 45.0903 79.1763 45.0059 79.6823 45.0059C80.4337 45.0059 81.1007 45.1133 81.6833 45.3279C82.266 45.5273 82.68 45.7343 82.9253 45.9489L82.2353 49.0309V49.7209C82.0053 49.3989 81.691 49.0692 81.2923 48.7319C80.909 48.3946 80.4797 48.1109 80.0043 47.8809C79.5443 47.6509 79.069 47.5359 78.5783 47.5359C78.0263 47.5359 77.6123 47.7353 77.3363 48.1339C77.0603 48.5326 76.9223 49.1612 76.9223 50.0199V54.6199C76.9223 55.1106 76.9683 55.4632 77.0603 55.6779C77.1677 55.8926 77.275 55.9999 77.3823 55.9999H73.1963ZM87.2271 56.2299C85.8471 56.2299 84.7431 55.9616 83.9151 55.4249C83.1024 54.8729 82.6961 53.9912 82.6961 52.7799C82.6961 51.9366 82.9107 51.2542 83.3401 50.7329C83.7694 50.2116 84.3521 49.8282 85.0881 49.5829C85.8394 49.3222 86.6904 49.1919 87.6411 49.1919C88.6991 49.1919 89.5271 49.3146 90.1251 49.5599C90.7231 49.8052 91.0987 49.9739 91.2521 50.0659C91.2521 49.1152 91.0834 48.4176 90.7461 47.9729C90.4087 47.5283 89.7571 47.3059 88.7911 47.3059C87.8557 47.3059 87.0277 47.3979 86.3071 47.5819C85.5864 47.7659 84.9961 47.9806 84.5361 48.2259C84.0914 48.4713 83.7847 48.6783 83.6161 48.8469V48.1569L83.3861 45.9029C83.4934 45.8416 83.7771 45.7419 84.2371 45.6039C84.6971 45.4659 85.3257 45.3356 86.1231 45.2129C86.9204 45.0749 87.8711 45.0059 88.9751 45.0059C90.4931 45.0059 91.6507 45.2283 92.4481 45.6729C93.2454 46.1023 93.7897 46.7233 94.0811 47.5359C94.3877 48.3486 94.5411 49.3299 94.5411 50.4799V54.6199C94.5411 55.0492 94.5871 55.3636 94.6791 55.5629C94.7864 55.7469 94.8937 55.8926 95.0011 55.9999H91.2751V55.5169L91.3211 55.0799L91.2751 55.0339C91.0297 55.2946 90.5621 55.5629 89.8721 55.8389C89.1974 56.0996 88.3157 56.2299 87.2271 56.2299ZM88.3081 53.9069C89.2587 53.9069 89.9871 53.7996 90.4931 53.5849C91.0144 53.3549 91.2751 53.0636 91.2751 52.7109C91.2751 52.3582 91.0067 52.0669 90.4701 51.8369C89.9487 51.6069 89.2357 51.4919 88.3311 51.4919C87.4571 51.4919 86.8361 51.6146 86.4681 51.8599C86.1154 52.1052 85.9391 52.4119 85.9391 52.7799C85.9391 53.2399 86.1461 53.5466 86.5601 53.6999C86.9741 53.8379 87.5567 53.9069 88.3081 53.9069ZM95.9735 55.9999C96.0809 55.9999 96.1805 55.8926 96.2725 55.6779C96.3799 55.4632 96.4335 55.1106 96.4335 54.6199V46.8459C96.4335 46.3553 96.3799 46.0103 96.2725 45.8109C96.1805 45.5963 96.0809 45.4813 95.9735 45.4659C96.6482 45.4659 97.3382 45.4199 98.0435 45.3279C98.7489 45.2206 99.3009 45.1133 99.6995 45.0059V46.4089L99.6535 46.7079L99.6995 46.7539C99.7455 46.6466 99.8912 46.4549 100.137 46.1789C100.382 45.9029 100.735 45.6423 101.195 45.3969C101.655 45.1363 102.222 45.0059 102.897 45.0059C104.323 45.0059 105.411 45.4123 106.163 46.2249C106.929 47.0376 107.313 48.3103 107.313 50.0429V54.6199C107.313 55.1106 107.359 55.4632 107.451 55.6779C107.558 55.8926 107.665 55.9999 107.773 55.9999H103.587C103.694 55.9999 103.794 55.8926 103.886 55.6779C103.993 55.4632 104.047 55.1106 104.047 54.6199V50.1119C104.047 49.0232 103.878 48.2873 103.541 47.9039C103.203 47.5053 102.774 47.3059 102.253 47.3059C101.593 47.3059 101.003 47.5436 100.482 48.0189C99.9602 48.4789 99.6995 49.2456 99.6995 50.3189V54.6199C99.6995 55.1106 99.7455 55.4632 99.8375 55.6779C99.9449 55.8926 100.052 55.9999 100.16 55.9999H95.9735ZM114.505 56.2299C113.141 56.2299 111.991 56.1532 111.055 55.9999C110.12 55.8466 109.476 55.6932 109.123 55.5399V54.8499L108.64 52.5959C109.039 52.8872 109.783 53.1786 110.871 53.4699C111.96 53.7612 113.294 53.9069 114.873 53.9069C115.594 53.9069 116.092 53.8379 116.368 53.6999C116.66 53.5619 116.805 53.3242 116.805 52.9869C116.805 52.7262 116.706 52.5269 116.506 52.3889C116.322 52.2509 115.985 52.1436 115.494 52.0669C115.004 51.9749 114.291 51.8676 113.355 51.7449C112.175 51.5916 111.239 51.3769 110.549 51.1009C109.859 50.8096 109.369 50.4416 109.077 49.9969C108.801 49.5369 108.663 48.9773 108.663 48.3179C108.663 47.7046 108.809 47.1526 109.1 46.6619C109.407 46.1559 109.928 45.7573 110.664 45.4659C111.416 45.1593 112.458 45.0059 113.792 45.0059C115.05 45.0059 116.154 45.0826 117.104 45.2359C118.055 45.3893 118.737 45.5426 119.151 45.6959V46.3859L119.611 48.4099C119.259 48.1799 118.569 47.9423 117.541 47.6969C116.514 47.4516 115.211 47.3289 113.631 47.3289C113.018 47.3289 112.581 47.3903 112.32 47.5129C112.06 47.6356 111.929 47.8503 111.929 48.1569C111.929 48.3563 112.014 48.5249 112.182 48.6629C112.351 48.7856 112.681 48.9006 113.171 49.0079C113.677 49.1152 114.429 49.2379 115.425 49.3759C116.729 49.5446 117.71 49.7822 118.369 50.0889C119.029 50.3802 119.473 50.7482 119.703 51.1929C119.933 51.6222 120.048 52.1436 120.048 52.7569C120.048 53.9376 119.604 54.8116 118.714 55.3789C117.825 55.9462 116.422 56.2299 114.505 56.2299ZM121.393 55.9999C121.5 55.9999 121.6 55.8926 121.692 55.6779C121.799 55.4632 121.853 55.1106 121.853 54.6199V47.5359H119.783V45.2359H122.083L122.106 45.1899C122.06 45.1133 121.968 44.8603 121.83 44.4309C121.692 43.9863 121.623 43.4649 121.623 42.8669C121.623 41.6556 121.968 40.7816 122.658 40.2449C123.363 39.7083 124.321 39.4399 125.533 39.4399C126.514 39.4399 127.38 39.4936 128.132 39.6009C128.883 39.6929 129.427 39.7926 129.765 39.8999V40.6129L130.225 43.1199C129.949 42.9206 129.588 42.7213 129.144 42.5219C128.714 42.3073 128.254 42.1309 127.764 41.9929C127.273 41.8396 126.782 41.7629 126.292 41.7629C125.801 41.7629 125.448 41.8779 125.234 42.1079C125.034 42.3379 124.935 42.6753 124.935 43.1199V44.5459C124.935 44.8833 124.965 45.0826 125.027 45.1439C125.088 45.2053 125.295 45.2359 125.648 45.2359H129.098C128.99 45.3739 128.883 45.6423 128.776 46.0409C128.684 46.4243 128.638 46.9226 128.638 47.5359H125.165V54.6199C125.165 55.1106 125.211 55.4632 125.303 55.6779C125.41 55.8926 125.517 55.9999 125.625 55.9999H121.393ZM134.748 56.2299C133.138 56.2299 131.873 56.0076 130.953 55.5629C130.048 55.1182 129.412 54.4819 129.044 53.6539C128.676 52.8106 128.492 51.8062 128.492 50.6409C128.492 48.9083 128.975 47.5359 129.941 46.5239C130.907 45.5119 132.387 45.0059 134.38 45.0059C135.545 45.0059 136.488 45.1669 137.209 45.4889C137.945 45.8109 138.505 46.2403 138.888 46.7769C139.271 47.3136 139.532 47.9116 139.67 48.5709C139.823 49.2149 139.9 49.8666 139.9 50.5259V51.6069C139.9 51.5609 139.685 51.5149 139.256 51.4689C138.842 51.4076 138.137 51.3769 137.14 51.3769H131.804C131.804 52.2202 132.057 52.8566 132.563 53.2859C133.084 53.6999 133.928 53.9069 135.093 53.9069C136.074 53.9069 136.948 53.7919 137.715 53.5619C138.497 53.3166 139.064 53.0866 139.417 52.8719V53.5619L139.647 55.3099C139.356 55.5092 138.796 55.7162 137.968 55.9309C137.14 56.1302 136.067 56.2299 134.748 56.2299ZM132.655 49.3989H136.634C136.634 49.0616 136.557 48.7319 136.404 48.4099C136.266 48.0879 136.036 47.8273 135.714 47.6279C135.392 47.4133 134.947 47.3059 134.38 47.3059C133.537 47.3059 132.931 47.4823 132.563 47.8349C132.195 48.1876 132.011 48.5556 132.011 48.9389C132.011 49.0922 132.057 49.2072 132.149 49.2839C132.241 49.3606 132.41 49.3989 132.655 49.3989ZM140.921 55.9999C141.029 55.9999 141.128 55.8926 141.22 55.6779C141.328 55.4632 141.381 55.1106 141.381 54.6199V46.8459C141.381 46.3553 141.328 46.0103 141.22 45.8109C141.128 45.5963 141.029 45.4813 140.921 45.4659C141.596 45.4659 142.286 45.4199 142.991 45.3279C143.697 45.2206 144.249 45.1133 144.647 45.0059V45.9259L144.601 46.3169L144.647 46.3629C144.755 46.1943 144.923 46.0103 145.153 45.8109C145.399 45.5963 145.705 45.4123 146.073 45.2589C146.457 45.0903 146.901 45.0059 147.407 45.0059C148.159 45.0059 148.826 45.1133 149.408 45.3279C149.991 45.5273 150.405 45.7343 150.65 45.9489L149.96 49.0309V49.7209C149.73 49.3989 149.416 49.0692 149.017 48.7319C148.634 48.3946 148.205 48.1109 147.729 47.8809C147.269 47.6509 146.794 47.5359 146.303 47.5359C145.751 47.5359 145.337 47.7353 145.061 48.1339C144.785 48.5326 144.647 49.1612 144.647 50.0199V54.6199C144.647 55.1106 144.693 55.4632 144.785 55.6779C144.893 55.8926 145 55.9999 145.107 55.9999H140.921Z" fill="#A6B1C6"/>
</svg>
