<svg width="180" height="96" viewBox="0 0 180 96" fill="none" xmlns="http://www.w3.org/2000/svg">
<g clip-path="url(#clip0)">
<path d="M40.3433 55.8633C44.0658 55.8633 47.2748 53.9636 47.2748 50.6262C47.2748 43.2326 36.9033 46.7754 36.9033 41.2559C36.9033 39.7925 37.8531 38.6116 39.8042 38.6116C43.5524 38.6116 42.6025 43.1813 45.3751 43.1813C46.479 43.1813 47.0181 42.5651 47.0181 41.5896C47.0438 39.4588 44.1942 37.1483 39.8812 37.1483C35.6453 37.1483 33.0781 39.4075 33.0781 42.4881C33.1038 50.0871 43.4753 46.3389 43.4753 51.8071C43.4753 53.3731 42.2944 54.4 40.4974 54.4C36.1588 54.4 36.8519 49.7277 34.2847 49.6763C33.2322 49.6763 32.7444 50.3438 32.7444 51.2423C32.7444 53.2961 35.4656 55.8633 40.3433 55.8633ZM60.2166 52.988V43.592C60.2166 43.1556 59.9085 43.0529 59.2411 43.1299L55.955 43.6177C55.647 43.669 55.4416 43.9001 55.4416 44.1568V44.2338C55.4416 44.7986 56.4685 45.0553 56.4685 46.1849V51.3963C56.4685 53.2191 55.4929 54.4 54.2607 54.4C52.8487 54.4 52.1299 53.2961 52.1299 50.9086L52.2069 43.592C52.2069 43.1556 51.8218 43.0529 51.1543 43.1299L47.9197 43.6177C47.5859 43.669 47.3805 43.9001 47.3805 44.1568V44.2338C47.3805 44.7986 48.3818 45.0553 48.3818 46.1849V50.5235C48.3818 54.0406 50.5125 55.8633 53.1568 55.8633C54.9282 55.8633 56.1861 55.2215 56.8792 54.0919C56.9563 55.3499 57.7007 55.7606 59.1641 55.7606C60.6017 55.7606 61.4489 55.6066 61.4489 55.0161C61.4489 54.0662 60.2166 55.0161 60.2166 52.988ZM72.7949 43.284C70.1764 43.284 69.3292 43.0272 67.6862 43.0272C64.0921 43.0272 61.6019 45.2094 61.6019 48.4184C61.6019 51.345 64.1691 53.5015 67.6091 53.5015C67.9429 53.5015 68.2766 53.4758 68.6104 53.4501C69.6116 53.6555 70.202 54.5283 70.202 55.812C70.202 57.2496 69.2008 58.2251 67.6091 58.2251C64.6055 58.1738 65.1703 54.323 63.0652 54.323C62.0126 54.323 61.5505 55.0418 61.5505 55.7606C61.5505 57.763 63.7583 59.3034 67.5321 59.3034C71.1776 59.3034 73.9758 57.8914 73.9758 55.7093C73.9758 54.3486 73.18 53.2961 70.8952 52.7826C72.6665 51.9355 73.7704 50.3438 73.7704 48.3157C73.7704 47.0834 73.1543 45.8768 72.3328 45.0297C73.1286 44.7986 74.1042 44.9013 74.2839 44.0541C74.4379 43.592 74.1812 43.284 72.7949 43.284ZM65.2216 46.724C65.2216 45.158 65.9404 44.1568 67.1214 44.1568C68.9184 44.1568 70.125 47.3145 70.125 49.779C70.125 51.2937 69.4062 52.3462 68.1739 52.3462C66.5566 52.3462 65.2216 49.4453 65.2216 46.724ZM86.2952 53.0394L85.7304 48.29C85.371 45.0553 83.1119 43.0272 79.7745 43.0272C77.1046 43.0272 74.8454 44.1055 74.8454 45.9539C74.8454 46.8267 75.4616 47.3915 76.3858 47.3915C78.3112 47.3915 77.7207 44.1055 79.7745 44.1055C81.3405 44.1055 81.7512 45.5431 82.0593 48.5467L82.085 48.8548C81.4175 48.3927 80.4676 48.0846 79.2867 48.0846C76.7709 48.0846 74.6144 49.4196 74.6401 51.9868C74.6401 54.554 76.6938 55.8633 79.4664 55.8633C81.2378 55.8633 82.316 55.2215 82.8808 54.3743C83.0349 55.4782 83.7023 55.7606 85.1656 55.7606C86.3979 55.7606 87.6302 55.6066 87.6302 55.0161C87.6302 54.323 86.5006 54.8107 86.2952 53.0394ZM80.596 54.7337C79.2867 54.7337 78.4395 53.1677 78.4395 51.3963C78.4395 50.0871 79.2354 49.2399 80.3136 49.2399C81.3662 49.2399 82.1877 50.0101 82.3417 51.5247L82.4187 52.4232C82.4957 53.5785 81.7769 54.7337 80.596 54.7337ZM95.2582 43.0272C93.5382 43.0272 92.3316 43.9258 91.7668 45.5688V43.6434C91.7668 43.1556 91.5358 42.8475 90.9453 43.1299L87.8646 44.5676C87.5309 44.7216 87.3255 44.927 87.3255 45.1837V45.2864C87.3255 45.9282 88.5064 46.0052 88.5064 47.1348V53.1421C88.5064 54.2203 87.5052 54.4257 87.5052 55.0675V55.1702C87.5052 55.4525 87.7363 55.6066 88.0957 55.6066H92.845C93.1788 55.6066 93.4098 55.4525 93.4098 55.1702V55.0675C93.4098 54.4257 92.1262 54.2203 92.1262 53.1421V48.0076C92.1262 46.5957 92.4856 45.1837 93.4868 45.1837C94.8731 45.1837 93.9746 47.3915 95.977 47.3915C97.2093 47.3915 97.6201 46.4416 97.6201 45.3634C97.6201 44.0541 96.7729 43.0272 95.2582 43.0272ZM103.598 55.8633C106.936 55.8633 108.682 53.7839 108.836 51.6787C108.887 51.114 108.245 51.0113 107.937 51.422C107.398 52.3462 106.422 53.2191 104.856 53.2191C102.238 53.2191 100.492 50.9856 100.492 47.5712C100.492 45.6715 101.416 44.1568 102.88 44.1568C105.113 44.1311 104.959 47.7766 107.167 47.9049C108.348 47.9563 108.759 47.2888 108.759 46.6213C108.759 44.6189 106.397 43.0016 103.444 43.0272C99.9787 43.0529 96.975 45.4661 96.975 49.4196C96.975 52.8853 99.7219 55.8633 103.598 55.8633ZM120.795 53.0394L120.23 48.29C119.871 45.0553 117.612 43.0272 114.274 43.0272C111.605 43.0272 109.345 44.1055 109.345 45.9539C109.345 46.8267 109.962 47.3915 110.886 47.3915C112.811 47.3915 112.221 44.1055 114.274 44.1055C115.84 44.1055 116.251 45.5431 116.559 48.5467L116.585 48.8548C115.917 48.3927 114.968 48.0846 113.787 48.0846C111.271 48.0846 109.114 49.4196 109.14 51.9868C109.14 54.554 111.194 55.8633 113.966 55.8633C115.738 55.8633 116.816 55.2215 117.381 54.3743C117.535 55.4782 118.202 55.7606 119.666 55.7606C120.898 55.7606 122.13 55.6066 122.13 55.0161C122.13 54.323 121.001 54.8107 120.795 53.0394ZM115.096 54.7337C113.787 54.7337 112.939 53.1677 112.939 51.3963C112.939 50.0871 113.735 49.2399 114.814 49.2399C115.866 49.2399 116.688 50.0101 116.842 51.5247L116.919 52.4232C116.996 53.5785 116.277 54.7337 115.096 54.7337ZM135.252 53.1164L134.944 48.4954C134.636 44.4135 132.377 43.0272 130.041 43.0272C128.295 43.0272 126.934 43.7974 126.241 45.1067V43.669C126.241 43.1813 125.959 42.8219 125.368 43.1299L122.313 44.6189C122.005 44.7729 121.8 44.9013 121.8 45.158V45.2607C121.8 45.9025 123.058 46.0052 123.058 47.1604V53.1421C123.058 54.246 121.954 54.4513 121.954 55.0931V55.1958C121.954 55.4525 122.185 55.6323 122.544 55.6323H127.32C127.679 55.6323 127.91 55.4525 127.91 55.1958V55.0931C127.91 54.4513 126.806 54.246 126.806 53.1421V47.3145C126.806 45.6458 127.602 44.4905 128.988 44.4905C130.349 44.4905 131.093 45.6201 131.222 48.367L131.478 53.1164C131.53 54.246 130.554 54.4513 130.554 55.0931V55.1958C130.554 55.4525 130.785 55.6323 131.145 55.6323H135.586C135.945 55.6323 136.176 55.4525 136.176 55.1958V55.0931C136.176 54.4513 135.329 54.246 135.252 53.1164ZM146.768 51.7044C146.28 52.5003 145.202 53.1934 143.841 53.1934C142.301 53.1934 141.12 52.3719 140.452 50.9599L146.152 48.367C146.845 48.059 147.281 47.5455 147.281 46.6727C147.281 44.9783 145.792 43.0272 142.429 43.0272C139.066 43.0272 136.216 45.6201 136.216 49.3426C136.216 53.2961 138.861 55.8633 142.429 55.8633C145.741 55.8633 147.486 53.4758 147.64 51.9868C147.666 51.4477 147.076 51.3193 146.768 51.7044ZM141.967 44.1568C143.353 44.1568 144.021 45.9795 144.021 46.9037C144.021 47.4428 143.815 47.8793 143.353 48.1103L140.042 49.779C139.862 49.1115 139.785 48.367 139.785 47.5712C139.785 45.6201 140.606 44.1568 141.967 44.1568Z" fill="#A6B1C6"/>
</g>
<defs>
<clipPath id="clip0">
<rect width="116" height="22.8197" fill="white" transform="translate(32 36.5902)"/>
</clipPath>
</defs>
</svg>
