<svg width="180" height="96" viewBox="0 0 180 96" fill="none" xmlns="http://www.w3.org/2000/svg">
<path d="M45.1485 44.9567C45.0917 44.4524 44.8573 44.0618 44.4454 43.7848C44.0334 43.5043 43.515 43.364 42.89 43.364C42.2188 43.364 41.6861 43.5167 41.2919 43.8221C40.8978 44.1275 40.7007 44.5128 40.7007 44.978C40.7007 45.326 40.8054 45.6101 41.015 45.8303C41.228 46.0469 41.4873 46.2173 41.7927 46.3416C42.1016 46.4659 42.3981 46.5654 42.6822 46.6399L43.7476 46.9169C44.0956 47.0021 44.4525 47.1193 44.8182 47.2685C45.184 47.4141 45.5231 47.6058 45.8356 47.8438C46.1481 48.0781 46.4003 48.3711 46.592 48.7227C46.7873 49.0742 46.885 49.495 46.885 49.9851C46.885 50.5994 46.7252 51.1481 46.4056 51.631C46.0895 52.114 45.6314 52.494 45.0313 52.771C44.4312 53.0444 43.7032 53.1811 42.8473 53.1811C41.6258 53.1811 40.6527 52.8952 39.9283 52.3235C39.2074 51.7518 38.8204 50.9723 38.7671 49.9851H40.4184C40.4681 50.5781 40.7255 51.0185 41.1907 51.3061C41.6559 51.5937 42.2046 51.7376 42.8367 51.7376C43.5363 51.7376 44.1133 51.576 44.5679 51.2528C45.026 50.9297 45.255 50.5018 45.255 49.9691C45.255 49.646 45.1627 49.3814 44.978 49.1754C44.7969 48.9659 44.5501 48.7955 44.2376 48.6641C43.9287 48.5291 43.5789 48.4102 43.1883 48.3072L41.8992 47.9556C41.0221 47.7177 40.3296 47.3679 39.8218 46.9063C39.314 46.4446 39.0601 45.8338 39.0601 45.0739C39.0601 44.4453 39.2305 43.8967 39.5714 43.4279C39.9123 42.9592 40.374 42.5952 40.9564 42.336C41.5423 42.0732 42.1993 41.9418 42.9272 41.9418C43.6659 41.9418 44.3175 42.0714 44.8821 42.3306C45.4503 42.5899 45.8978 42.9467 46.2245 43.4013C46.5512 43.8558 46.7216 44.3743 46.7358 44.9567H45.1485ZM55.4478 42.0909V53H53.8018V42.0909H55.4478ZM71.5998 42.0909V53H70.0871L64.542 44.9993H64.4407V53H62.7948V42.0909H64.3182L69.8687 50.1023H69.9699V42.0909H71.5998ZM88.0116 45.6385H86.3496C86.2147 44.9318 85.8827 44.3903 85.3536 44.0139C84.828 43.6339 84.2172 43.4439 83.5212 43.4439C82.8962 43.4439 82.3351 43.6019 81.8379 43.918C81.3408 44.234 80.9484 44.6975 80.6607 45.3083C80.3766 45.9155 80.2346 46.6612 80.2346 47.5455C80.2346 48.4333 80.3784 49.1825 80.666 49.7933C80.9537 50.4041 81.3443 50.8658 81.8379 51.1783C82.3351 51.4908 82.8944 51.647 83.5158 51.647C84.2048 51.647 84.8138 51.4606 85.3429 51.0877C85.872 50.7149 86.2076 50.1804 86.3496 49.4844L88.0116 49.4897C87.8944 50.207 87.6316 50.8409 87.2232 51.3913C86.8148 51.9418 86.2928 52.3732 85.6572 52.6857C85.0215 52.9947 84.3042 53.1491 83.5052 53.1491C82.5606 53.1491 81.719 52.9254 80.9803 52.478C80.2417 52.027 79.6593 51.3825 79.2332 50.5444C78.8106 49.7063 78.5993 48.7067 78.5993 47.5455C78.5993 46.3807 78.8124 45.3811 79.2385 44.5465C79.6646 43.7085 80.247 43.0657 80.9857 42.6183C81.7243 42.1673 82.5641 41.9418 83.5052 41.9418C84.2758 41.9418 84.9771 42.0874 85.6092 42.3786C86.2449 42.6698 86.7722 43.0923 87.1913 43.6463C87.6138 44.1967 87.8873 44.8608 88.0116 45.6385ZM94.9311 53V42.0909H96.5771V51.5831H101.52V53H94.9311ZM109.811 53H108.064L111.99 42.0909H113.892L117.818 53H116.07L115.074 50.1129H110.813L109.811 53ZM111.292 48.728H114.595L112.986 44.0725H112.901L111.292 48.728ZM125.989 42.0909V53H124.343V42.0909H125.989ZM133.336 53V42.0909H137.224C138.069 42.0909 138.771 42.2365 139.328 42.5277C139.886 42.8189 140.303 43.222 140.58 43.7369C140.861 44.2482 141.001 44.8395 141.001 45.5107C141.001 46.2422 140.834 46.8761 140.5 47.4123C140.17 47.945 139.669 48.3356 138.998 48.5842L141.416 53H139.541L137.326 48.8718C137.29 48.8718 137.255 48.8718 137.219 48.8718H134.982V53H133.336ZM134.982 47.4549H137.07C137.872 47.4549 138.451 47.2845 138.806 46.9436C139.165 46.6026 139.344 46.125 139.344 45.5107C139.344 44.8928 139.165 44.4045 138.806 44.0458C138.448 43.6836 137.862 43.5025 137.049 43.5025H134.982V47.4549Z" fill="#A6B1C6"/>
</svg>
