<svg width="48" height="48" viewBox="0 0 48 48" fill="none" xmlns="http://www.w3.org/2000/svg">
<path d="M38.4885 24.8171L17.6691 38.6968C17.5212 38.7952 17.3493 38.8517 17.1719 38.8601C16.9944 38.8686 16.818 38.8288 16.6614 38.745C16.5048 38.6611 16.3738 38.5364 16.2825 38.384C16.1912 38.2316 16.1429 38.0573 16.1428 37.8796V10.1204C16.1429 9.9427 16.1912 9.7684 16.2825 9.61601C16.3738 9.46362 16.5048 9.33886 16.6614 9.25501C16.818 9.17115 16.9944 9.13135 17.1719 9.13984C17.3493 9.14833 17.5212 9.20479 17.6691 9.30321L38.4885 23.1829C38.623 23.2725 38.7333 23.3941 38.8096 23.5366C38.8859 23.6792 38.9258 23.8383 38.9258 24C38.9258 24.1617 38.8859 24.3208 38.8096 24.4634C38.7333 24.6059 38.623 24.7274 38.4885 24.8171Z" fill="#161C27"/>
</svg>
