<svg width="115" height="32" viewBox="0 0 115 32" fill="none" xmlns="http://www.w3.org/2000/svg">
<path d="M26 5C9.33333 5 7.11111 20.4 6 27H8.22C8.96 23.3337 10.8122 21.3174 13.7778 20.95C18.2222 20.4 21.5556 16.55 22.6667 13.25L21 12.15L22.1111 11.05C23.2222 9.95 24.3378 8.3 26 5Z" fill="#161C27"/>
<path d="M53.16 24.24C51.64 24.24 50.2533 23.9133 49 23.26C47.76 22.6067 46.78 21.6933 46.06 20.52C45.3533 19.3467 45 18.02 45 16.54C45 15.1 45.34 13.7933 46.02 12.62C46.7 11.4467 47.6333 10.5267 48.82 9.86C50.0067 9.19333 51.3267 8.86 52.78 8.86C54.2333 8.86 55.5533 9.19333 56.74 9.86C57.9267 10.5267 58.86 11.4467 59.54 12.62C60.2333 13.7933 60.58 15.1 60.58 16.54C60.58 17.5267 60.4267 18.46 60.12 19.34C59.8133 20.2067 59.3733 20.98 58.8 21.66L60.52 23.56L58.52 25.24L56.8 23.34C55.7067 23.94 54.4933 24.24 53.16 24.24ZM47.72 16.54C47.72 17.5267 47.94 18.42 48.38 19.22C48.82 20.02 49.42 20.6467 50.18 21.1C50.9533 21.54 51.82 21.76 52.78 21.76C53.5533 21.76 54.28 21.6067 54.96 21.3L52.22 18.28L54.24 16.62L56.94 19.6C57.54 18.7333 57.84 17.7133 57.84 16.54C57.84 15.5533 57.62 14.6667 57.18 13.88C56.74 13.08 56.1333 12.46 55.36 12.02C54.6 11.5667 53.74 11.34 52.78 11.34C51.82 11.34 50.9533 11.5667 50.18 12.02C49.42 12.46 48.82 13.08 48.38 13.88C47.94 14.6667 47.72 15.5533 47.72 16.54ZM65.8586 24.24C64.5919 24.24 63.5919 23.8333 62.8586 23.02C62.1253 22.2067 61.7586 21.1267 61.7586 19.78V13.12H64.3786V19.56C64.3786 20.24 64.5786 20.7933 64.9786 21.22C65.3919 21.6333 65.9253 21.84 66.5786 21.84C67.2319 21.84 67.7586 21.6267 68.1586 21.2C68.5719 20.7733 68.7786 20.2067 68.7786 19.5V13.12H71.3986V24H68.9186V22.7C68.6253 23.2067 68.2119 23.5933 67.6786 23.86C67.1586 24.1133 66.5519 24.24 65.8586 24.24ZM73.0341 13.12H75.6541V24H73.0341V13.12ZM72.8341 10.12C72.8341 9.64 72.9674 9.26667 73.2341 9C73.5007 8.73333 73.8674 8.6 74.3341 8.6C74.8141 8.6 75.1874 8.73333 75.4541 9C75.7207 9.26667 75.8541 9.64 75.8541 10.12C75.8541 10.5867 75.7207 10.9533 75.4541 11.22C75.2007 11.4867 74.8274 11.62 74.3341 11.62C73.8674 11.62 73.5007 11.4867 73.2341 11.22C72.9674 10.9533 72.8341 10.5867 72.8341 10.12ZM77.2731 8.86H79.8931V24H77.2731V8.86ZM81.5122 8.86H84.1322V24H81.5122V8.86ZM91.0713 24.24C90.0179 24.24 89.0513 23.9933 88.1713 23.5C87.2913 23.0067 86.5913 22.3267 86.0713 21.46C85.5646 20.5933 85.3113 19.6267 85.3113 18.56C85.3113 17.4933 85.5646 16.5267 86.0713 15.66C86.5779 14.7933 87.2713 14.1133 88.1513 13.62C89.0313 13.1267 90.0046 12.88 91.0713 12.88C92.1246 12.88 93.0846 13.1267 93.9513 13.62C94.8313 14.1133 95.5246 14.7933 96.0313 15.66C96.5513 16.5267 96.8113 17.4933 96.8113 18.56C96.8113 19.64 96.5513 20.6133 96.0313 21.48C95.5246 22.3467 94.8313 23.0267 93.9513 23.52C93.0713 24 92.1113 24.24 91.0713 24.24ZM88.0313 18.56C88.0313 19.5067 88.3113 20.2933 88.8713 20.92C89.4446 21.5333 90.1779 21.84 91.0713 21.84C91.6446 21.84 92.1579 21.7 92.6113 21.42C93.0646 21.14 93.4179 20.7533 93.6713 20.26C93.9379 19.7533 94.0713 19.1867 94.0713 18.56C94.0713 17.9467 93.9379 17.3933 93.6713 16.9C93.4179 16.3933 93.0646 16 92.6113 15.72C92.1579 15.4267 91.6446 15.28 91.0713 15.28C90.4846 15.28 89.9579 15.4267 89.4913 15.72C89.0379 16 88.6779 16.3867 88.4113 16.88C88.1579 17.3733 88.0313 17.9333 88.0313 18.56ZM96.8028 13.12H99.5628L101.843 19.98L104.263 13.12H106.583L108.983 19.96L111.263 13.12H114.023L110.283 24H107.943L105.423 16.66L102.863 24H100.543L96.8028 13.12Z" fill="#161C27"/>
</svg>
