<svg width="24" height="24" viewBox="0 0 24 24" fill="none" xmlns="http://www.w3.org/2000/svg">
<path d="M22.1618 5.656C21.3984 5.9937 20.5888 6.21548 19.7598 6.314C20.6336 5.79144 21.2875 4.96902 21.5998 4C20.7798 4.488 19.8808 4.83 18.9438 5.015C18.3144 4.34158 17.4802 3.89497 16.5708 3.74459C15.6614 3.59421 14.7277 3.74849 13.9151 4.18346C13.1024 4.61842 12.4562 5.30969 12.0769 6.1498C11.6976 6.9899 11.6066 7.93178 11.8178 8.829C10.1549 8.74566 8.52814 8.31353 7.0431 7.56067C5.55805 6.80781 4.24794 5.75105 3.19781 4.459C2.8261 5.09745 2.63076 5.82323 2.63181 6.562C2.63181 8.012 3.36981 9.293 4.49181 10.043C3.82782 10.0221 3.17844 9.84278 2.59781 9.52V9.572C2.59801 10.5377 2.93218 11.4736 3.54366 12.2211C4.15513 12.9685 5.00629 13.4815 5.95281 13.673C5.33642 13.84 4.69012 13.8647 4.06281 13.745C4.32968 14.5762 4.84982 15.3032 5.5504 15.8241C6.25099 16.345 7.09694 16.6338 7.96981 16.65C7.10229 17.3313 6.10899 17.835 5.04669 18.1322C3.98439 18.4294 2.87394 18.5143 1.77881 18.382C3.69051 19.6114 5.9159 20.2641 8.18881 20.262C15.8818 20.262 20.0888 13.889 20.0888 8.362C20.0888 8.182 20.0838 8 20.0758 7.822C20.8947 7.23017 21.6014 6.49702 22.1628 5.657L22.1618 5.656Z" fill="#161C27"/>
</svg>
